<?xml version="1.0" standalone="no"?>
<!DOCTYPE svg PUBLIC "-//W3C//DTD SVG 1.1//EN" "http://www.w3.org/Graphics/SVG/1.1/DTD/svg11.dtd" >
<!--
2013-9-30: Created.
-->
<svg>
<metadata>
Created by iconfont
</metadata>
<defs>

<font id="iconfont" horiz-adv-x="1024" >
  <font-face
    font-family="iconfont"
    font-weight="500"
    font-stretch="normal"
    units-per-em="1024"
    ascent="896"
    descent="-128"
  />
    <missing-glyph />
    
    <glyph glyph-name="x" unicode="x" horiz-adv-x="1001"
d="M281 543q-27 -1 -53 -1h-83q-18 0 -36.5 -6t-32.5 -18.5t-23 -32t-9 -45.5v-76h912v41q0 16 -0.5 30t-0.5 18q0 13 -5 29t-17 29.5t-31.5 22.5t-49.5 9h-133v-97h-438v97zM955 310v-52q0 -23 0.5 -52t0.5 -58t-10.5 -47.5t-26 -30t-33 -16t-31.5 -4.5q-14 -1 -29.5 -0.5
t-29.5 0.5h-32l-45 128h-439l-44 -128h-29h-34q-20 0 -45 1q-25 0 -41 9.5t-25.5 23t-13.5 29.5t-4 30v167h911zM163 247q-12 0 -21 -8.5t-9 -21.5t9 -21.5t21 -8.5q13 0 22 8.5t9 21.5t-9 21.5t-22 8.5zM316 123q-8 -26 -14 -48q-5 -19 -10.5 -37t-7.5 -25t-3 -15t1 -14.5
t9.5 -10.5t21.5 -4h37h67h81h80h64h36q23 0 34 12t2 38q-5 13 -9.5 30.5t-9.5 34.5q-5 19 -11 39h-368zM336 498v228q0 11 2.5 23t10 21.5t20.5 15.5t34 6h188q31 0 51.5 -14.5t20.5 -52.5v-227h-327z" />
    

    
    <glyph glyph-name="icon19" unicode="&#58899;" d="M693.892741 326.586074l-156.988681 0 0 156.988681-54.465422 0 0-156.988681-156.986785 0 0-51.262578 156.986785 0 0-156.988681 54.465422 0 0 156.988681 156.988681 0L693.892741 326.586074zM504.833896-91.480889c-219.054459 0-397.274074 178.219615-397.274074 397.274074s178.219615 397.274074 397.274074 397.274074 397.274074-178.219615 397.274074-397.274074S723.888356-91.480889 504.833896-91.480889zM504.833896 687.487289c-210.473719 0-381.694104-171.220385-381.694104-381.694104s171.220385-381.694104 381.694104-381.694104c210.473719 0 381.694104 171.220385 381.694104 381.694104S715.307615 687.487289 504.833896 687.487289zM685.831585 330.974104l-154.242844 0 0 154.240948-53.511585 0 0-154.240948-154.240948 0 0-50.36563 154.240948 0 0-154.240948 53.511585 0 0 154.240948 154.242844 0L685.831585 330.974104z"  horiz-adv-x="1024" />

    
    <glyph glyph-name="xiazai" unicode="&#58947;" d="M880.27648-42.9376l-0.0512 0L142.7456-42.9376l-0.05632 0c-15.82592 0-28.65664-12.83072-28.65664-28.71808 0-15.82592 12.85632-28.66176 28.65664-28.66176l0.05632 0 737.50528 0 0.06144 0c15.85664 0 28.66176 12.83584 28.66176 28.66176C908.94336-55.76832 896.14336-42.9376 880.27648-42.9376L880.27648-42.9376zM489.97376 18.33856c5.376-5.38112 12.71296-8.7808 20.89984-8.7808l0 0 0 0c8.18688 0.03072 15.54944 3.34336 20.87424 8.8064l276.08576 276.1216c5.32992 5.32992 8.7552 12.69248 8.7552 20.82304 0 16.22016-13.22496 29.33248-29.3632 29.3632-8.18688 0.05632-15.49312-3.31264-20.84864-8.66304l-226.0736-226.13504L540.24704 664.288l0 0.06144c0 16.22016-13.13792 29.39392-29.31712 29.41952-16.22528-0.0256-29.3632-13.19936-29.3632-29.41952l0-0.06144L481.536 109.93024 255.42656 336.09088c-5.28896 5.31968-12.68736 8.63744-20.8128 8.63744-16.19968 0-29.36832-13.17376-29.39392-29.36832 0-8.12544 3.33312-15.54944 8.71936-20.7872L489.97376 18.33856 489.97376 18.33856zM489.97376 18.33856"  horiz-adv-x="1024" />

    
    <glyph glyph-name="xinxi" unicode="&#58932;" d="M511.99941746 2.3662034499999436c-32.54088249 0-64.26442979 2.94217387-95.11009849 8.05459285L193.96640313-124.85282360999997 193.96640313 100.34279650999997C77.73948473 181.94590833999996 3.14659385 307.07502535000003 3.14659385 447.61242397c0 245.90144398 227.82227001 445.24272867 508.85282361 445.24272867 281.03288263 0 508.85282361-199.34128469 508.85282361-445.24272867C1020.85224221 201.70632419000003 793.03230009 2.3662034499999436 511.99941746 2.3662034499999436z"  horiz-adv-x="1024" />

    
    <glyph glyph-name="tupian" unicode="&#58991;" d="M934.379355 854.958258 86.284667 854.958258c-44.551682 0-80.984453-33.112142-80.984453-77.738525l0-779.403213c0-44.603871 36.433794-81.108273 80.984453-81.108273l854.837252 0c44.532239 0 77.649498 36.504402 77.649498 81.108273L1018.771417 777.219733C1018.770394 821.843046 978.914664 854.958258 934.379355 854.958258L934.379355 854.958258zM331.795267 739.598904c68.602448 0 124.230396-55.573713 124.230396-124.141368 0-68.570725-55.627948-124.144438-124.230396-124.144438-68.617797 0-124.246769 55.576783-124.246769 124.144438C207.545428 684.025191 263.1744 739.598904 331.795267 739.598904L331.795267 739.598904zM119.365086 15.072533c-9.30697 0-18.689664 3.216251-26.320459 9.777691-16.991999 14.605649-18.964934 40.170908-4.383844 57.225329L274.874883 362.772536c13.834076 16.175401 37.780465 18.85851 54.895261 6.200212l164.312276-122.030287 294.427706 334.440002c13.932314 17.500583 87.88563 99.918687 131.199111 6.442736 0.064468 0.140193 0.103354-123.58162 0.138146-249.925143 0.067538-131.756813 0.067538-322.68119 0.067538-322.68119C919.012366 15.420457 119.750873 15.072533 119.365086 15.072533L119.365086 15.072533z"  horiz-adv-x="1024" />

    
    <glyph glyph-name="dianzan2" unicode="&#59095;" d="M592.482521 814.045453c5.408173-1.571798 21.10569-7.749498 34.489512-28.89612 13.277398-20.977777 20.860097-50.482765 22.537296-87.694271 2.323928-51.564399-6.921643-116.208699-27.479865-192.134949-3.164063-11.686157-0.704035-24.179702 6.653537-33.794687s18.774599-15.254425 30.881334-15.254425l237.905388 0c0.564865 0 0.939395-0.007163 1.261737-0.007163 0.49528 0 0.867764 0.016373 1.610684 0.100284 0.064468 0 0.1361 0.001023 0.216941 0.001023 3.959172 0 9.472745-0.915859 12.867052-2.961448 1.350764-0.813528 4.938476-2.976798 4.937452-15.414061 0-0.838088-2.362814-91.833545-86.747713-378.845351-0.564865-1.768273-4.881171-15.055904-11.57257-29.836539-8.573259-18.938328-15.117302-27.442002-18.262946-30.831192L450.32994-1.523447c-7.052626 0-22.701025 3.016707-35.412534 9.724479-5.3918 2.844791-9.67229 6.091742-12.0525 9.142218-1.733481 2.220574-2.081405 3.804652-2.081405 5.641487L400.783501 476.459808c17.947767 14.998599 48.703235 42.738383 79.498612 79.953983 62.121849 75.072813 95.67913 154.473187 97.29186 230.011604 0.99056 4.742001 1.283226 9.235338 1.543146 13.223163 0.210801 3.232624 0.635473 9.756201 1.678222 12.213159C581.787948 812.359045 585.116763 813.704692 592.482521 814.045453M596.04772 853.009883c-65.99097 0-52.308343-52.182476-57.297984-60.883649 0-166.500105-176.85187-296.969599-176.85187-296.969599L361.897865 22.983713c0-46.606481 63.515592-63.392796 88.432075-63.392796l357.452111 0c33.642215 0 61.035098 88.220251 61.035098 88.220251 88.434122 300.709783 88.434122 390.178467 88.434122 390.178467 0.004093 53.570079-44.445258 57.261145-56.69014 57.261145-1.956561 0-3.090385-0.094144-3.090385-0.094144L659.564335 495.156636C751.751944 835.621864 596.04772 853.009883 596.04772 853.009883L596.04772 853.009883zM261.585205 456.115458l0-457.638905-101.800547 0-28.271904 457.638905L261.585205 456.115458M264.328689 495.002117c-0.041956 0-0.064468 0-0.064468 0L121.807718 495.002117c-29.41903 0-29.871331-28.89612-29.871331-28.89612l29.41903-476.204749c0-30.309306 30.361495-30.309306 30.361495-30.309306L275.017122-40.408059c25.683962 0 25.453718 20.044522 25.453718 20.044522L300.470841 458.887594C300.470841 494.565165 266.015098 495.002117 264.328689 495.002117L264.328689 495.002117z"  horiz-adv-x="1024" />

    
    <glyph glyph-name="yuedu" unicode="&#58926;" d="M1023.99616 384.00768c0-282.776186-229.239174-512.00768-512-512.00768-282.768506 0-511.99232 229.231494-511.99232 512.00768C0.00384 666.768506 229.227654 896 511.99616 896 794.756986 896 1023.99616 666.768506 1023.99616 384.00768M282.06579 142.396088l53.782771 67.222704C343.474763 219.157304 361.545712 227.843341 373.756851 227.843341l368.638157 0c25.412993 0 46.07977 20.666777 46.07977 46.07977l0 253.438733c0 25.412993-20.666777 46.07977-46.07977 46.07977l-460.797696 0c-25.412993 0-46.07977-20.666777-46.07977-46.07977l0-368.638157c0-7.365083 1.213434-13.309373 3.717101-18.178469 3.90142-7.587802 11.036105-12.126659 19.061665-12.126659C266.644427 128.426238 274.639267 133.118694 282.06579 142.396088zM742.395008 542.721766c8.470998 0 15.359923-6.888926 15.359923-15.359923l0-253.438733c0-8.470998-6.888926-15.359923-15.359923-15.359923l-368.638157 0c-21.718931 0-48.322318-12.787136-61.90049-29.752171L266.237389 171.787301 266.237389 527.361843c0 8.470998 6.888926 15.359923 15.359923 15.359923L742.395008 542.721766zM669.435373 465.92215 335.357043 465.92215l0-30.719846 334.07833 0L669.435373 465.92215zM669.435373 381.442573 335.357043 381.442573l0-30.719846 334.07833 0L669.435373 381.442573z"  horiz-adv-x="1024" />

    
    <glyph glyph-name="ai-video" unicode="&#58987;" d="M647.725 55.103c0 0 93.091 0 93.091 93.091v465.453c0 93.091-93.091 93.091-93.091 93.091h-554.634c0 0-93.091 0-93.091-93.091v-465.453c0-93.091 93.091-93.091 93.091-93.091h554.634zM795.041 524.885v-289.605l228.956-180.177-0 651.634-228.956-181.852z"  horiz-adv-x="1024" />

    
    <glyph glyph-name="small-top-arrow" unicode="&#58884;" d="M306.623 356.302c-25.424-28.657-14.899-52.105 23.426-52.103h377.469c38.303 0 48.849 23.448 23.426 52.105l-165.926 186.946c-25.425 28.656-67.044 28.656-92.481 0l-165.916-186.946z"  horiz-adv-x="1024" />

    
    <glyph glyph-name="weibiaoti5" unicode="&#58900;" d="M505.888 820.776 505.888 820.776 505.888 820.776ZM601.672 813.584C573.804 818.432 528 820.776 528 820.776l0-37.544c0 0 41.892-2.24 69.18-6.924 186.108-22.572 380.16-179.056 378.2-393.616 3.992-187.736-158.568-335.216-310.932-378.644l-2.396-0.28-1.752-0.372c-35.892-12.464-75.056-18.58-118.928-18.58-54.708 0-109.648 9.124-167.744 18.784-58.668 9.736-119.46 19.836-180.736 19.836-24.484 0-47.796-1.624-70.128-4.844l0.204 0.772 19.188 62.736 4.356 14.144-6.52 13.316-14.056 28.6c-50.516 102.22-91.712 207.9-62.056 317.416C110.252 668.388 316 783.216 528 783.236L528 820l-12.372 0C298.236 820 68.988 683.336 21.036 463.176c-35.852-132.248 31.776-255.536 87.672-370.26-9.612-31.288-29.984-94.18-39.6-125.468 41.636 13.404 82.664 18.38 124.3 18.38 116.276 0 232.14-38.552 347.928-38.552 43.716 0 87.228 5.516 130.82 20.672 181.456 51.736 345.02 219.428 340.832 415.516C1015.104 609.168 814.9 787.72 601.672 813.584zM449.792 384.04c0-35.98 29.168-65.188 65.184-65.188 36.016 0 65.184 29.208 65.184 65.188 0 35.972-29.168 65.184-65.184 65.184C478.96 449.224 449.792 420.012 449.792 384.04zM285.524 449.224c-36.012 0-65.18-29.212-65.18-65.184 0-35.98 29.168-65.188 65.18-65.188 35.976 0 65.18 29.208 65.18 65.188C350.704 420.012 321.5 449.224 285.524 449.224zM744.424 318.852c36.016 0 65.188 29.208 65.188 65.188 0 35.972-29.172 65.184-65.188 65.184-36.012 0-65.184-29.212-65.184-65.184C679.244 348.06 708.416 318.852 744.424 318.852z"  horiz-adv-x="1024" />

    
    <glyph glyph-name="weibiaoti51" unicode="&#58901;" d="M596.324 816.624C354.28 858.644 72.384 714.948 17.724 464.096c-36.108-133.196 34.468-257.56 90.764-373.112-9.684-31.512-28.968-94.948-38.652-126.464 203.36 65.536 406.716-69.752 608.436 0.412 182.756 52.112 342.004 221.008 337.776 418.496C1018.184 610.744 811.048 790.572 596.324 816.624zM289.032 318.344c-36.272 0-65.652 29.42-65.652 65.656 0 36.228 29.376 65.652 65.652 65.652 36.232 0 65.652-29.424 65.652-65.652C354.684 347.764 325.264 318.344 289.032 318.344zM520.128 318.344c-36.272 0-65.656 29.42-65.656 65.656 0 36.228 29.384 65.652 65.656 65.652 36.272 0 65.656-29.424 65.656-65.652C585.784 347.764 556.404 318.344 520.128 318.344zM751.224 318.344c-36.268 0-65.648 29.42-65.648 65.656 0 36.228 29.38 65.652 65.648 65.652 36.272 0 65.656-29.424 65.656-65.652C816.88 347.764 787.496 318.344 751.224 318.344z"  horiz-adv-x="1024" />

    
    <glyph glyph-name="fenxiang" unicode="&#58919;" d="M893.263423 300.860138c-13.343913 0-24.127514-10.815323-24.127514-24.127514l0-187.768501c0-39.934524-32.510438-72.41324-72.41324-72.41324L120.720456 16.550884c-39.934524 0-72.41324 32.478715-72.41324 72.41324L48.307216 582.511866c0 39.934524 32.478715 72.41324 72.41324 72.41324l150.201907 0c13.343913 0 24.12649 10.815323 24.12649 24.12649s-10.815323 24.12649-24.12649 24.12649L120.720456 703.178087c-66.556858 0.064468-120.698966-54.077639-120.698966-120.667244l0-493.579465c0-66.556858 54.142108-120.698966 120.698966-120.698966l675.971515 0c66.556858 0 120.698966 54.142108 120.698966 120.698966L917.390937 276.700902C917.390937 290.043792 906.607336 300.860138 893.263423 300.860138L893.263423 300.860138zM458.721563 215.039541c13.343913 0 24.12649 10.815323 24.12649 24.12649L482.848053 512.755129c0 39.934524 32.478715 72.41324 72.41324 72.41324l370.896308 0L814.483172 473.492917c-9.407254-9.44-9.407254-24.735357 0-34.142611 4.704139-4.704139 10.911514-7.072069 17.087167-7.072069 6.175653 0 12.351306 2.336208 17.087167 7.072069l175.321004 175.352727L845.970304 792.711239c-9.44 9.407254-24.735357 9.407254-34.142611 0-9.407254-9.44-9.407254-24.735357 0-34.142611l125.114532-125.08281L555.262316 633.485818c-66.556858 0-120.698966-54.142108-120.698966-120.698966l0-273.588075C434.56335 225.854864 445.378673 215.039541 458.721563 215.039541L458.721563 215.039541z"  horiz-adv-x="1024" />

    
    <glyph glyph-name="xinxi2" unicode="&#59032;" d="M512.803295 843.254705C229.585909 843.254705 0 655.39206 0 423.688931 0 310.033381 55.449893 207.099011 145.158031 131.549338L93.236498-89.114364l275.704273 110.264313c45.686529-10.880815 93.876064-17.027815 143.862525-17.027815 283.216363 0 512.803295 187.816596 512.803295 419.565774C1025.606591 655.39206 796.019659 843.254705 512.803295 843.254705zM512.803295 50.740894c-44.431955 0-89.186252 5.302773-133.025713 15.775288-3.575432 0.841158-7.216355 1.272993-10.836813 1.272993-5.895267 0-11.789511-1.11438-17.300015-3.345188l-192.483896-76.983325 31.367405 133.412522c4.053316 17.117866-1.911536 35.008328-15.34243 46.322002C92.281753 237.010251 46.61876 328.130551 46.61876 423.688931 46.61876 629.329475 255.765151 796.636968 512.803295 796.636968c257.06168 0 466.184535-167.30647 466.184535-372.948037S769.863952 50.740894 512.803295 50.740894z"  horiz-adv-x="1026" />

    
    <glyph glyph-name="text" unicode="&#59022;" d="M916.949 662.22c11.859-12.105 11.756-31.494-0.424-43.496l-87.605-86.289-169.555 170.338 90.038 86.552c12.249 11.771 31.866 11.416 43.647-0.608l123.898-126.497zM206.89 248.683c13.311 13.662 29.93 30.515 49.881 50.56l334.588 336.124 169.563-171.251-194.952-195.852-72.538-73.778c-24.179-23.688-45.943-45.398-65.287-65.139-19.344-19.739-35.366-35.975-48.051-48.73-12.706-12.758-20.258-20.039-22.679-21.861-6.039-5.472-13.002-11.237-20.851-17.305-7.853-6.081-16.020-10.939-24.483-14.573-8.459-4.252-20.849-9.413-37.18-15.493-16.32-6.064-33.396-11.984-51.224-17.761-17.83-5.767-34.756-10.776-50.783-15.033-16.013-4.246-27.961-6.986-35.81-8.195-16.328-1.82-27.211 0.616-32.649 7.288-5.44 6.681-6.955 17.911-4.538 33.7 1.217 8.51 4.085 20.8 8.623 36.895s9.369 32.795 14.504 50.103c5.14 17.305 10.121 33.247 14.958 47.815 4.842 14.58 8.761 24.6 11.787 30.065 3.632 8.497 7.717 16.244 12.243 23.231 4.534 6.98 11.036 14.721 19.492 23.226 3.634 3.643 12.096 12.302 25.387 25.963z"  horiz-adv-x="1024" />

    
    <glyph glyph-name="bofang" unicode="&#58928;" d="M221.79-118.944c-36.776 0-68.472 13.843-91.663 40.034-23.131 26.122-35.869 63.466-35.869 105.156v715.33c0 41.692 12.739 79.041 35.87 105.169 23.193 26.198 54.889 40.044 91.663 40.044 27.752 0 56.166-8.16 84.451-24.253l570.273-358.823c50.087-28.728 78.901-72.396 79.053-119.807 0-48.285-28.559-91.194-80.419-120.835l-0.164-0.093-566.355-356.251c-30.366-17.273-58.772-25.671-86.842-25.671zM221.79 832.856c-44.709 0-73.598-35.829-73.598-91.28v-715.331c0-55.437 28.889-91.256 73.598-91.256 18.275 0 38.138 6.032 59.035 17.929l0.166 0.095 566.31 356.242c35.545 20.448 54.333 46.233 54.333 74.564-0.105 37.917-32.838 62.24-52.339 73.363l-1.198 0.713-569.695 358.475c-18.994 10.786-38.568 16.485-56.611 16.485z"  horiz-adv-x="1024" />

    
    <glyph glyph-name="gengduo1" unicode="&#58930;" d="M512 894.977772c-282.494884 0-511.48633-228.991446-511.48633-511.48633s228.991446-511.48633 511.48633-511.48633 511.48633 228.991446 511.48633 511.48633S794.493862 894.977772 512 894.977772zM512-76.846665c-254.2364 0-460.338106 206.101706-460.338106 460.338106S257.7636 843.829547 512 843.829547s460.338106-206.101706 460.338106-460.338106S766.235378-76.846665 512-76.846665zM690.964606 562.45707 333.034371 562.45707c-14.120042 0-25.566956-11.445892-25.566956-25.566956s11.445892-25.566956 25.566956-25.566956l357.931257 0c14.120042 0 25.566956 11.445892 25.566956 25.566956S705.085671 562.45707 690.964606 562.45707zM690.964606 409.058398 333.034371 409.058398c-14.120042 0-25.566956-11.445892-25.566956-25.566956 0-14.120042 11.445892-25.566956 25.566956-25.566956l357.931257 0c14.120042 0 25.566956 11.445892 25.566956 25.566956C716.531563 397.611483 705.085671 409.058398 690.964606 409.058398zM690.964606 255.658703 333.034371 255.658703c-14.120042 0-25.566956-11.445892-25.566956-25.566956s11.445892-25.566956 25.566956-25.566956l357.931257 0c14.120042 0 25.566956 11.445892 25.566956 25.566956S705.085671 255.658703 690.964606 255.658703z"  horiz-adv-x="1024" />

    
    <glyph glyph-name="damuzhizhaoxia" unicode="&#59001;" d="M541.37472-127.07456c-53.2608 0-78.1888 29.0944-89.7216 53.50528-13.23776 28.01664-13.23776 59.63648-13.23776 70.02752 0 85.40416-12.35072 122.016-26.21056 154.50368-4.35072 7.65056-22.5536 30.03648-52.32768 52.09984-42.24512 31.30752-75.13984 37.88032-95.29728 37.88032H118.80832c-33.4976 0-63.85664 13.93792-85.4848 39.2448C12.4032 304.6656 0.89728 338.68928 0.92544 375.99232c0 0.6528 0.03072 1.30304 0.09216 1.952L38.848 776.7104c2.72384 36.1024 13.52704 64.6144 32.11136 84.74368C91.15648 883.32928 119.36768 894.43072 154.81344 894.44864c1.7472 0.01408 30.9824 0.24832 52.81664 0.24832 9.09696 0 21.55264-0.0448 29.22624-0.256 23.63904-0.79104 42.85952-12.70784 60.12928-25.46816 2.6624-1.95712 5.11872-3.91424 7.28576-5.64096 1.19808-0.95488 2.60864-2.08 3.89376-3.05664 1.7408 0.8384 3.65184 1.77408 5.3824 2.62144 7.46624 3.65568 17.69088 8.66304 28.87936 13.41952C369.83168 887.89376 407.70176 895.07456 441.30048 895.07456h304.91904c54.31296 0 96.68608-10.39744 125.94304-30.9056 30.21696-21.18144 46.19008-53.02144 46.19008-92.07936 0-12.39936-1.568-22.66496-5.30304-32.61952 42.9696-17.74976 67.87712-50.9248 67.87712-92.17536 0-11.42912-2.93376-27.96928-9.04704-42.32064 25.64096-18.16704 51.26656-52.37632 51.19616-89.31712 0-31.424-8.72576-57.37728-25.46688-76.33792 14.42432-21.00224 25.216-52.75136 25.216-79.41888 0-0.17024-0.00128-0.33792-0.0064-0.50688-0.83456-34.36928-17.70496-65.20576-47.50208-86.83264-28.86144-20.94592-67.63392-32.01792-112.12544-32.01792H672.60032c12.78208-45.70112 18.29888-97.10208 15.64032-147.72224-3.26528-62.16832-18.64192-117.61408-43.29728-156.1216-14.70848-22.97984-32.37504-40.07936-52.50816-50.82496-16.09856-8.59264-33.27744-12.94848-51.06048-12.94848zM42.59712 375.01568c0.16256-26.9888 8.1024-51.0208 22.40512-67.7568 13.78048-16.12544 32.38656-24.64768 53.80608-24.64768h145.7728c47.88992 0 91.74912-25.05344 120.1088-46.06976 31.86432-23.61472 56.68352-51.47776 64.73216-66.7968 0.25472-0.4864 0.49152-0.98176 0.70656-1.48608 15.15904-35.3856 29.95712-77.79712 29.95712-171.8016 0-73.37728 34.97856-81.8624 61.28896-81.8624 18.22208 0 44.89344 7.73248 68.47232 44.5696 20.82688 32.5248 33.88672 80.76672 36.77952 135.83872 2.92864 55.7632-4.94208 112.29696-22.1632 159.18848a20.8384 20.8384 0 0 0 19.5584 28.0192h219.17056c35.13216 0 66.26048 8.54912 87.64928 24.07296 19.23968 13.96224 29.71776 32.58752 30.31552 53.86752-0.10112 27.8848-16.89216 57.78944-23.77856 62.5856a20.83456 20.83456 0 0 0-1.08672 35.4496c16.66688 10.99904 25.11616 30.3488 25.11616 57.50912 0.05632 30.26688-33.29536 58.35776-44.84864 61.31072a20.83584 20.83584 0 0 0-6.81984 37.23392c3.65312 3.872 9.51936 20.58624 9.51936 33.05344 0 40.7296-42.95168 55.41248-61.41696 59.8336a20.83456 20.83456 0 0 0-12.1088 32.36224c8.59776 12.05248 10.95168 19.0592 10.95168 32.59904 0 25.58592-9.30304 44.54272-28.43904 57.95584-22.10944 15.49824-56.43648 23.35744-102.02368 23.35744h-304.9216c-31.79776 0-64.40448-7.76192-82.61504-15.45472-10.11968-4.30208-19.37408-8.83456-26.81088-12.47616-12.65664-6.19904-17.39264-8.51712-23.7696-8.51712-12.50048 0-21.69216 7.32544-29.80224 13.78688-1.96096 1.56288-3.98848 3.17824-6.04032 4.68736-11.0848 8.192-23.93472 16.9344-36.67712 17.36064-5.49504 0.15232-15.46624 0.23808-27.95392 0.23808-22.22592 0-52.25088-0.24576-52.55296-0.24832h-0.17152c-23.71328 0-41.1584-6.40896-53.3312-19.59296-12.08064-13.08416-19.20896-33.20064-21.18912-59.79136-0.01024-0.1408-0.02304-0.28032-0.03456-0.42112L42.59712 375.01568zM301.26336 246.80704c-12.01792 0-21.76 9.74208-21.76 21.76V835.40096c0 12.01792 9.74208 21.76 21.76 21.76s21.76-9.74208 21.76-21.76v-566.83392c0-12.01792-9.74208-21.76-21.76-21.76z"  horiz-adv-x="1024" />

    
    <glyph glyph-name="gengduo" unicode="&#58912;" d="M557.179-8c-8.189 0-16.379 3.124-22.628 9.372-12.496 12.497-12.496 32.759 0 45.256L871.924 384 534.551 721.373c-12.496 12.497-12.496 32.758 0 45.255 12.498 12.497 32.758 12.497 45.256 0l360-360c12.496-12.497 12.496-32.758 0-45.255l-360-360c-6.249-6.249-14.439-9.373-22.628-9.373z"  horiz-adv-x="1024" />

    
    <glyph glyph-name="guanbi" unicode="&#58913;" d="M511.333 768.667c51.868 0 102.15-10.144 149.451-30.15 45.719-19.337 86.792-47.034 122.078-82.321 35.287-35.286 62.983-76.359 82.321-122.078 20.006-47.3 30.15-97.583 30.15-149.451s-10.144-102.15-30.15-149.451c-19.337-45.719-47.034-86.792-82.321-122.078-35.286-35.287-76.359-62.983-122.078-82.321-47.3-20.006-97.583-30.15-149.451-30.15s-102.15 10.144-149.451 30.15c-45.719 19.337-86.792 47.034-122.078 82.321-35.287 35.286-62.983 76.359-82.321 122.078-20.006 47.3-30.15 97.583-30.15 149.451s10.144 102.15 30.15 149.451c19.337 45.719 47.034 86.792 82.321 122.078 35.286 35.287 76.359 62.983 122.078 82.321 47.301 20.006 97.583 30.15 149.451 30.15m0 64c-247.424 0-448-200.576-448-448s200.576-448 448-448 448 200.576 448 448-200.576 448-448 448zM557.254 384l147.373 147.373c12.497 12.497 12.497 32.758 0 45.255-12.496 12.497-32.758 12.497-45.254 0L512 429.254 364.627 576.627c-12.497 12.497-32.758 12.497-45.255 0s-12.497-32.758 0-45.255L466.746 384 319.373 236.627c-12.497-12.496-12.497-32.758 0-45.254C325.621 185.124 333.811 182 342 182s16.379 3.124 22.627 9.373L512 338.746l147.373-147.373C665.621 185.124 673.811 182 682 182s16.379 3.124 22.627 9.373c12.497 12.496 12.497 32.758 0 45.254L557.254 384z"  horiz-adv-x="1024" />

    
    <glyph glyph-name="tianjia" unicode="&#58914;" d="M801.171 412.411H544V669.582c0 17.673-14.327 32-32 32s-32-14.327-32-32v-257.171H222.83c-17.673 0-32-14.327-32-32s14.327-32 32-32H480v-257.17c0-17.673 14.327-32 32-32s32 14.327 32 32v257.17h257.171c17.673 0 32 14.327 32 32s-14.327 32-32 32z"  horiz-adv-x="1024" />

    
    <glyph glyph-name="sousuo" unicode="&#58915;" d="M862.609 79.045L726.44 215.215l-0.059 0.056a358.907 358.907 0 0 1 56.43 91.927c18.824 44.507 28.369 91.767 28.369 140.467 0 48.701-9.545 95.96-28.369 140.467-18.176 42.973-44.19 81.56-77.319 114.689-33.13 33.129-71.717 59.144-114.69 77.32-44.507 18.825-91.767 28.37-140.467 28.37-48.701 0-95.96-9.545-140.467-28.37-42.973-18.176-81.56-44.19-114.689-77.32-33.13-33.129-59.144-71.717-77.32-114.689-18.825-44.507-28.37-91.767-28.37-140.467 0-48.7 9.545-95.96 28.37-140.467 18.176-42.974 44.19-81.561 77.32-114.69 33.129-33.129 71.717-59.144 114.689-77.319 44.507-18.824 91.767-28.369 140.467-28.369 48.7 0 95.96 9.545 140.467 28.369 32.78 13.864 62.997 32.303 90.197 54.968 0.063-0.064 0.122-0.132 0.186-0.195l136.169-136.17c6.25-6.25 14.438-9.373 22.628-9.373 8.188 0 16.38 3.125 22.627 9.372 12.496 12.496 12.496 32.758 0 45.254z m-412.274 69.466c-79.907 0-155.031 31.118-211.534 87.62-56.503 56.503-87.62 131.627-87.62 211.534s31.117 155.031 87.62 211.534c56.502 56.503 131.626 87.62 211.534 87.62s155.031-31.117 211.534-87.62c56.502-56.502 87.62-131.626 87.62-211.534s-31.118-155.031-87.62-211.534c-56.503-56.502-131.627-87.62-211.534-87.62z"  horiz-adv-x="1024" />

    
    <glyph glyph-name="xuanzhong" unicode="&#58918;" d="M512 832C264.576 832 64 631.424 64 384s200.576-448 448-448 448 200.576 448 448S759.424 832 512 832z m271.529-719.529c-35.286-35.287-76.359-62.983-122.078-82.321C614.15 10.144 563.868 0 512 0c-51.868 0-102.15 10.144-149.451 30.15-45.719 19.337-86.792 47.034-122.078 82.321-35.287 35.286-62.983 76.359-82.321 122.078C138.144 281.85 128 332.132 128 384s10.144 102.15 30.15 149.451c19.337 45.719 47.034 86.792 82.321 122.078 35.286 35.287 76.359 62.983 122.078 82.321C409.85 757.856 460.132 768 512 768c51.868 0 102.15-10.144 149.451-30.15 45.719-19.337 86.792-47.034 122.078-82.321 35.287-35.286 62.983-76.359 82.321-122.078C885.856 486.15 896 435.868 896 384s-10.144-102.15-30.15-149.451c-19.338-45.718-47.034-86.792-82.321-122.078zM707.576 533.474L448.465 274.363 316.424 406.404c-12.497 12.497-32.758 12.497-45.255 0s-12.497-32.758 0-45.255l154.668-154.668c6.249-6.249 14.438-9.373 22.627-9.373s16.379 3.124 22.627 9.373L752.83 488.219c12.497 12.497 12.497 32.758 0 45.255-12.496 12.497-32.758 12.497-45.254 0z"  horiz-adv-x="1024" />

    
    <glyph glyph-name="shoucang" unicode="&#58922;" d="M902.211 485.642a31.766 31.766 0 0 1-25.644 21.62L644.34 541.006 540.485 751.439a31.765 31.765 0 0 1-56.971 0L379.659 541.005l-232.227-33.744a31.768 31.768 0 0 1-17.606-54.183l168.042-163.8-39.669-231.288a31.765 31.765 0 0 1 46.091-33.487L512 133.702l207.71-109.199c6.915-3.65 22.854-4.496 33.454 2.418 10.086 6.579 14.681 19.151 12.637 31.069l-39.669 231.288 168.041 163.8a31.765 31.765 0 0 1 8.038 32.564zM669.827 323.115a31.766 31.766 0 0 1-9.136-28.117l31.611-184.31-165.521 87.02a31.746 31.746 0 0 1-14.782 3.648 31.755 31.755 0 0 1-14.782-3.648l-165.521-87.02 31.611 184.31a31.766 31.766 0 0 1-9.135 28.117l-133.91 130.53 185.058 26.89a31.765 31.765 0 0 1 23.918 17.377L512 665.604l82.761-167.691a31.765 31.765 0 0 1 23.917-17.377l185.059-26.89-133.91-130.531z"  horiz-adv-x="1024" />

    
    <glyph glyph-name="shoucangxuanzhong" unicode="&#58923;" d="M902.211 485.642a31.766 31.766 0 0 1-25.644 21.62L644.34 541.006 540.485 751.439a31.765 31.765 0 0 1-56.971 0L379.659 541.005l-232.227-33.744a31.768 31.768 0 0 1-17.606-54.183l168.042-163.8-39.669-231.288a31.765 31.765 0 0 1 46.091-33.487L512 133.702l207.71-109.199c6.915-3.65 22.854-4.496 33.454 2.418 10.086 6.579 14.681 19.151 12.637 31.069l-39.669 231.288 168.041 163.8a31.765 31.765 0 0 1 8.038 32.564z"  horiz-adv-x="1024" />

    
    <glyph glyph-name="caidan" unicode="&#58924;" d="M192.037 608.047h640.124c17.673 0 32 14.327 32 32s-14.327 32-32 32H192.037c-17.673 0-32-14.327-32-32s14.327-32 32-32zM192.028 352.83h638.608c17.673 0 32 14.327 32 32s-14.327 32-32 32H192.028c-17.673 0-32-14.327-32-32s14.327-32 32-32zM832.161 160.198H192.037c-17.673 0-32-14.327-32-32s14.327-32 32-32h640.124c17.673 0 32 14.327 32 32s-14.327 32-32 32z"  horiz-adv-x="1024" />

    
    <glyph glyph-name="liebiao" unicode="&#58925;" d="M419.037 608.047h413.124c17.673 0 32 14.327 32 32s-14.327 32-32 32H419.037c-17.673 0-32-14.327-32-32s14.327-32 32-32zM419.028 352.83h411.608c17.673 0 32 14.327 32 32s-14.327 32-32 32H419.028c-17.673 0-32-14.327-32-32s14.327-32 32-32zM832.161 160.198H419.037c-17.673 0-32-14.327-32-32s14.327-32 32-32h413.124c17.673 0 32 14.327 32 32s-14.327 32-32 32zM256.037 640.047m-64 0a64 64 0 1 1 128 0 64 64 0 1 1-128 0ZM256.037 385.213m-64 0a64 64 0 1 1 128 0 64 64 0 1 1-128 0ZM256.037 128.379m-64 0a64 64 0 1 1 128 0 64 64 0 1 1-128 0Z"  horiz-adv-x="1024" />

    
    <glyph glyph-name="dingwei" unicode="&#58927;" d="M512 468.977m-90 0a90 90 0 1 1 180 0 90 90 0 1 1-180 0ZM512-14.402c-19.14 0-37.482 5.854-53.042 16.929-14.063 10.01-24.926 23.596-31.589 39.46L255.043 310.823l-0.154 0.25C225.522 358.791 210 413.395 210 468.979c0 80.667 31.414 156.506 88.454 213.546S431.333 770.979 512 770.979s156.506-31.414 213.546-88.454C782.587 625.485 814 549.646 814 468.979c0-55.849-15.655-110.671-45.274-158.539l-0.264-0.419-172.081-268.716c-6.755-15.726-17.66-29.176-31.704-39.055-15.485-10.895-33.7-16.652-52.677-16.652zM309.246 344.859l175.494-273.78 1.194-3.197c4.149-11.107 14.381-18.284 26.066-18.284 11.584 0 21.791 7.071 26.004 18.015l1.165 3.028L714.43 344.322C737.701 382.017 750 425.116 750 468.979c0 63.572-24.756 123.339-69.709 168.292-44.952 44.951-104.719 69.708-168.291 69.708s-123.339-24.756-168.292-69.708S274 532.551 274 468.979c0-43.64 12.186-86.552 35.246-124.12z"  horiz-adv-x="1024" />

    
    <glyph glyph-name="baocun" unicode="&#58939;" d="M819.823 812.306H206.991c-67.703 0-122.588-54.885-122.588-122.588v-612.833c0-67.703 54.885-122.588 122.588-122.588h612.833c67.703 0 122.588 54.885 122.588 122.588V689.718c-0.001 67.703-54.885 122.588-122.589 122.588z m-124.435-63.313v-241.142H331.772V748.993h363.616z m185.787-672.274c0.027-33.765-27.323-61.158-61.088-61.185H207.133c-16.389 0-31.864 6.297-43.454 17.887s-18.039 26.91-18.039 43.298v612.94c0.061 33.923 27.57 61.395 61.493 61.41h61.327v-245.294c-0.05-33.771 27.286-61.187 61.057-61.237h367.888c33.853 0 61.299 27.387 61.299 61.237V751.069h61.206c33.872-0.036 61.301-27.524 61.265-61.396V76.719zM574.817 566.064c17.483 0 31.656 14.173 31.656 31.656v61.292c0 17.483-14.173 31.656-31.656 31.656s-31.656-14.173-31.656-31.656v-61.292c0-17.483 14.173-31.656 31.656-31.656z"  horiz-adv-x="1024" />

    
    <glyph glyph-name="lishi" unicode="&#58940;" d="M511.998 832C264.574 832 64 631.426 64 384.002S264.574-64 511.998-64 960 136.578 960 384.002 759.422 832 511.998 832z m353.851-597.438c-82.215-194.648-306.657-285.794-501.306-203.579S78.749 337.64 160.964 532.289 467.621 818.083 662.27 735.868c168.009-70.963 262.57-250.652 225.926-429.313a383.995 383.995 0 0 0-22.347-71.993zM543.311 397.361V639.879c0 17.657-14.314 31.97-31.97 31.97s-31.97-14.314-31.97-31.97v-269.005l201.481-201.481c12.485-12.485 32.728-12.485 45.213 0s12.485 32.728 0 45.213L543.311 397.361z"  horiz-adv-x="1024" />

    
    <glyph glyph-name="shang" unicode="&#58941;" d="M904 204c0-8.189-3.124-16.379-9.372-22.628-12.497-12.496-32.759-12.496-45.256 0L512 518.745 174.628 181.372c-12.497-12.496-32.758-12.496-45.255 0-12.497 12.498-12.497 32.758 0 45.256l360 360c12.497 12.496 32.758 12.496 45.255 0l360-360C900.876 220.379 904 212.189 904 204z"  horiz-adv-x="1024" />

    
    <glyph glyph-name="xia" unicode="&#58942;" d="M904 564c0 8.189-3.124 16.379-9.372 22.628-12.497 12.496-32.759 12.496-45.256 0L512 249.255 174.628 586.628c-12.497 12.496-32.758 12.496-45.255 0-12.497-12.498-12.497-32.758 0-45.256l360-360c12.497-12.496 32.758-12.496 45.255 0l360 360C900.876 547.621 904 555.811 904 564z"  horiz-adv-x="1024" />

    
    <glyph glyph-name="zuo" unicode="&#58943;" d="M481.233-8c8.189 0 16.379 3.124 22.628 9.372 12.496 12.497 12.496 32.759 0 45.256L166.488 384l337.373 337.373c12.496 12.497 12.496 32.758 0 45.255-12.498 12.497-32.758 12.497-45.256 0l-360-360c-12.496-12.497-12.496-32.758 0-45.255l360-360c6.249-6.249 14.439-9.373 22.628-9.373z"  horiz-adv-x="1024" />

    
    <glyph glyph-name="rili" unicode="&#58944;" d="M948.030409 739.895677a150.613416 150.613416 0 0 1-138.919951 92.117192l-40.098072-0.028899a31.926735 31.926735 0 1 1 0.0289-63.849858h40.123359a86.178343 86.178343 0 0 0 61.368112-25.467695C886.91878 726.215371 895.884854 704.385402 895.884854 681.179094v-105.270082L128.003161 575.937911l-0.119211 0.032512V681.179094a86.95863 86.95863 0 0 0 86.868319 86.879157L255.760676 767.758418h0.231196a31.970084 31.970084 0 0 1 0.220359 63.940169l-41.142067 0.285383h-0.220359A150.85545 150.85545 0 0 1 63.940169 681.179094v-594.300389A150.638703 150.638703 0 0 1 214.85703-63.825022h594.28594A150.385832 150.385832 0 0 1 959.825022 86.878705V681.179094a149.825904 149.825904 0 0 1-11.794613 58.716583z m-77.522939-714.39231a86.102482 86.102482 0 0 0-61.3645-25.388221H214.85703a86.369802 86.369802 0 0 0-61.483711 25.391834c-16.41131 16.407698-25.492981 38.16903-25.492981 61.375337V511.997742h0.115598l767.888918-0.028899v-425.090138a86.106094 86.106094 0 0 0-25.377384-61.371725zM415.972342 736.030367a31.970084 31.970084 0 0 1 31.970085 31.970085V831.99842a31.970084 31.970084 0 0 1-63.940169 0v-63.997968a31.970084 31.970084 0 0 1 31.970084-31.970085zM608.154093 736.030367a31.970084 31.970084 0 0 1 31.970085 31.970085V831.99842a31.970084 31.970084 0 0 1-63.940169 0v-63.997968a31.970084 31.970084 0 0 1 31.970084-31.970085zM640.124178 448.057573h-256.12192a31.970084 31.970084 0 0 1 0-63.940169h195.837539c-9.865571-15.815258-20.952146-34.697476-32.071233-55.830243-19.445759-36.966088-34.979246-73.260261-46.170582-107.867427-14.312483-44.270439-21.569873-86.080807-21.569873-124.267899a31.970084 31.970084 0 1 1 63.940169 0c0 31.334295 6.141146 66.324379 18.278941 104.005729 9.977556 31.001951 23.972145 63.759547 41.586397 97.366067 30.413123 58.019382 61.368112 98.727956 61.664333 99.114487A31.970084 31.970084 0 0 1 640.124178 448.057573z"  horiz-adv-x="1024" />

    
    <glyph glyph-name="shouye" unicode="&#59031;" d="M986.25970211 479.5222717L545.51658738 861.61136145c-10.05497651 8.37914686-21.78578122 11.7308047-33.51658738 11.73080468s-23.46161088-3.35165934-33.51658738-11.73080468L37.74029789 472.81895452c-18.43412336-15.08246403-28.48909841-38.5440749-28.48909839-62.00568579v-432.36396787c0-46.92322175 36.86824524-83.791467 83.791467-83.79146699h251.37439952c46.92322175 0 83.791467 36.86824524 83.79146698 83.79146699V184.57630827000003c0 46.92322175 36.86824524 83.791467 83.791467 83.79146702s83.791467-36.86824524 83.791467-83.79146702v-207.80283707c0-46.92322175 36.86824524-83.791467 83.79146698-83.79146701h251.37439952c46.92322175 0 83.791467 36.86824524 83.791467 83.79146701V415.84075772c0 23.46161088-10.05497651 46.92322175-28.48909839 63.68151398z m-26.81326872-502.7488005c0-15.08246403-13.40663436-28.48909841-28.48909989-28.48909841H679.58293398c-15.08246403 0-28.48909841 13.40663436-28.48909839 28.48909841V184.57630827000003c0 77.08814981-62.00568578 139.09383559-139.09383559 139.0938356s-139.09383559-62.00568578-139.09383559-139.0938356v-207.80283707c0-15.08246403-13.40663436-28.48909841-28.48909839-28.48909841H93.0426665c-15.08246403 0-28.48909841 13.40663436-28.48909989 28.48909841V410.81326873c0 8.37914686 3.35165934 15.08246403 10.05497652 21.78578269l437.39145687 385.44074613 437.39145687-380.41325862c6.70331718-5.02748752 10.05497651-13.40663436 10.05497652-21.78578121v-439.06728652z"  horiz-adv-x="1024" />

    
    <glyph glyph-name="dian1" unicode="&#58887;" d="M513.365 482.811c16.384 0 30.72-6.144 42.325-18.432 12.288-12.288 17.749-26.624 17.749-43.691s-6.144-31.403-17.749-43.691c-12.971-11.605-27.307-17.749-43.691-17.749-8.875 0-17.067 1.365-24.576 4.779-7.509 3.413-14.336 7.509-19.797 12.971-5.461 5.461-10.24 12.288-12.971 19.797-3.413 7.509-4.779 15.701-4.779 24.576 0 17.067 6.144 31.403 17.749 43.691 13.653 11.605 28.672 17.749 45.739 17.749z"  horiz-adv-x="1024" />

    
    <glyph glyph-name="wenzi" unicode="&#58946;" d="M32.094654-128a31.9984 31.9984 0 0 0-23.346033 10.188291 32.766362 32.766362 0 0 0-7.935603 29.59212l64.764761 284.19699a32.766362 32.766362 0 0 0 8.498775 15.615219l577.558323 588.514575c10.905055 10.495475 102.39488 95.892805 178.320683 95.892805 24.421179 0 45.872906-8.60117 62.051298-24.881956l107.463427-108.026599c75.106645-75.516224-44.388181-213.288536-69.116544-240.115994L351.413088-67.126244a32.356782 32.356782 0 0 0-17.355933-9.113144L37.521582-127.488026a31.947203 31.947203 0 0 0-5.426928-0.511974z m93.9985 300.426579L74.230147-55.299635l238.938453 41.367532 571.00505 581.807709c43.415429 47.306435 91.643418 127.532823 70.140493 149.138143l-107.463427 107.975402c-2.815859 2.867057-7.270036 6.041298-16.843958 6.041297-38.142093 0-102.138893-47.460027-133.522924-77.410529L126.093154 172.426579zM914.021757 522.309885a32.254387 32.254387 0 0 0-30.462477 22.117294c-0.102395 0.358382-19.557422 55.037248-87.086845 123.38583-67.324634 68.143793-120.109195 87.035648-120.621169 87.240438a32.663967 32.663967 0 0 0-20.018199 41.111545 31.844808 31.844808 0 0 0 40.292385 20.478976c2.662267-0.921554 66.505475-22.731663 145.707915-103.00925 79.151242-80.072796 101.729314-145.810309 102.497275-148.472576a32.510374 32.510374 0 0 0-30.308885-42.852257zM349.56998-53.251737a32.151992 32.151992 0 0 0-30.41128 22.168491c-0.102395 0.358382-19.557422 55.037248-87.086845 123.385831-67.375831 68.19499-120.109195 86.984451-120.621169 87.18924a32.766362 32.766362 0 0 0-20.069397 41.111545c5.631718 16.895155 23.60202 26.110694 40.343583 20.530173 2.713464-0.921554 66.505475-22.731663 145.759112-102.958052 79.151242-80.072796 101.626919-145.810309 102.548473-148.523774a32.561572 32.561572 0 0 0-30.462477-42.903454z"  horiz-adv-x="1024" />

    
    <glyph glyph-name="yanjing" unicode="&#59661;" d="M511.999488 219.639628c-90.629113 0-164.361395 73.732282-164.361395 164.360372 0 90.629113 73.732282 164.361395 164.361395 164.361395 90.62809 0 164.360372-73.732282 164.360372-164.361395s-73.732282-164.360372-164.360372-164.360372z m0 267.323395c-56.774051 0-102.963023-46.188972-102.963023-102.963023 0-56.773028 46.188972-102.962 102.963023-102.962 56.773028 0 102.962 46.188972 102.962 102.962 0 56.774051-46.188972 102.963023-102.962 102.963023zM511.999488 76.988698c-0.224104 0-0.447185 0.002047-0.670265 0.007163-61.842487 1.350764-124.605949 17.72571-186.544627 48.668443-48.701189 24.329105-97.006358 57.68991-143.571906 99.154277-78.729086 70.100568-125.199467 138.881071-127.138632 141.774981a30.55797 30.55797 0 0 0-5.200442 17.384949 30.5549 30.5549 0 0 0 5.200442 17.427927c1.940189 2.89391 48.41057 71.674413 127.138632 141.776004 46.565549 41.464367 94.869694 74.824149 143.571906 99.153254 61.939701 30.942733 124.70214 47.316655 186.544627 48.66742 0.448208 0.010233 0.893346 0.010233 1.341554 0 61.84351-1.350764 124.605949-17.724687 186.54565-48.66742 48.702212-24.329105 97.006358-57.688887 143.571907-99.153254 78.728062-70.101591 125.198443-138.883117 127.137608-141.776004a30.691 30.691 0 0 0 5.199419-17.093306v-0.62524a30.699186 30.699186 0 0 0-5.199419-17.093307c-1.940189-2.89391-48.409546-71.674413-127.136585-141.776004-46.566572-41.464367-94.870718-74.824149-143.57293-99.154277-61.938678-30.94171-124.70214-47.316655-186.54565-48.668443-0.225127-0.005117-0.447185-0.007163-0.671289-0.007163zM117.277542 383.99386c17.954931-23.707958 54.937217-69.133543 105.875352-114.309442 65.787332-58.344826 169.262008-128.419811 288.846594-131.289162 196.931185 4.716418 351.377766 188.451046 394.721947 245.611907-17.948791 23.698748-54.933123 69.128427-105.876376 114.308419-65.787332 58.344826-169.260985 128.420835-288.846594 131.289162-196.930161-4.717442-351.375719-188.450023-394.720923-245.610884z"  horiz-adv-x="1024" />

    
    <glyph glyph-name="dian" unicode="&#58904;" d="M819.2 373.53a4 4 0 1 1 204.8 0 4 4 0 1 1-204.8 0zM409.6 373.53a4 4 0 1 1 204.8 0 4 4 0 1 1-204.8 0zM409.6 373.53a4 4 0 1 1 204.8 0 4 4 0 1 1-204.8 0zM0 373.53a4 4 0 1 1 204.8 0 4 4 0 1 1-204.8 0z"  horiz-adv-x="1024" />

    
    <glyph glyph-name="jinritoutiao" unicode="&#58886;" d="M1291.377778 537.6c0-5.688889-11.377778-22.755556-28.444445-45.511111s-34.133333-39.822222-51.2-56.888889c-17.066667-17.066667-34.133333-22.755556-51.2-28.444444s-39.822222-5.688889-68.266666-5.688889-51.2 5.688889-68.266667 22.755555c-17.066667 11.377778-45.511111 45.511111-79.644444 102.4-17.066667 22.755556-39.822222 45.511111-73.955556 79.644445S796.444444 668.444444 750.933333 702.577778c-45.511111 34.133333-73.955556 51.2-85.333333 56.888889-11.377778 5.688889-22.755556 5.688889-34.133333 5.688889s-22.755556-5.688889-34.133334-11.377778-62.577778-39.822222-147.911111-102.4S284.444444 520.533333 210.488889 457.955556c-45.511111-39.822222-85.333333-62.577778-119.466667-62.577778-22.755556 0-39.822222 11.377778-51.2 34.133333s-17.066667 56.888889-17.066666 96.711111c0 45.511111 5.688889 62.577778 11.377777 62.577778 11.377778 0 17.066667-5.688889 28.444445-11.377778s22.755556-11.377778 34.133333-11.377778c62.577778 0 153.6 39.822222 273.066667 119.466667S557.511111 816.355556 574.577778 839.111111c11.377778 22.755556 28.444444 34.133333 51.2 34.133333 5.688889 0 17.066667 0 22.755555-5.688888 5.688889-5.688889 17.066667-11.377778 28.444445-28.444445 28.444444-34.133333 85.333333-73.955556 159.288889-119.466667 73.955556-45.511111 136.533333-73.955556 176.355555-85.333333 85.333333-22.755556 147.911111-51.2 182.044445-85.333333 11.377778-5.688889 17.066667-11.377778 28.444444-11.377778s17.066667 0 22.755556 5.688889c5.688889 0 11.377778 5.688889 17.066666 5.688889 22.755556 0 28.444444-5.688889 28.444445-11.377778z m-386.844445-11.377778c0-17.066667-5.688889-28.444444-22.755555-45.511111-17.066667-17.066667-39.822222-22.755556-68.266667-22.755555s-56.888889 0-85.333333 5.688888-56.888889 5.688889-79.644445 5.688889c-22.755556 0-51.2-5.688889-85.333333-17.066666-34.133333-11.377778-62.577778-17.066667-85.333333-17.066667-51.2 0-85.333333 11.377778-102.4 28.444444-22.755556 22.755556-28.444444 39.822222-28.444445 51.2s5.688889 28.444444 22.755556 39.822223c17.066667 11.377778 28.444444 17.066667 34.133333 17.066666s11.377778-5.688889 17.066667-11.377777c0 0 5.688889-5.688889 17.066666-5.688889s22.755556 5.688889 45.511112 11.377777c45.511111 17.066667 108.088889 28.444444 182.044444 28.444445 45.511111 0 91.022222-5.688889 136.533333-11.377778 45.511111-5.688889 73.955556-17.066667 85.333334-28.444444s17.066667-17.066667 17.066666-28.444445z m51.2-164.977778c0-22.755556-5.688889-45.511111-22.755555-68.266666-11.377778-22.755556-39.822222-39.822222-73.955556-51.2-34.133333-11.377778-68.266667-34.133333-102.4-68.266667-34.133333-34.133333-56.888889-79.644444-73.955555-130.844444s-34.133333-85.333333-51.2-102.4c-17.066667-22.755556-28.444444-34.133333-34.133334-34.133334s-11.377778 5.688889-17.066666 17.066667c-5.688889 11.377778-5.688889 22.755556-5.688889 34.133333 0 22.755556 11.377778 62.577778 34.133333 119.466667 22.755556 56.888889 45.511111 102.4 62.577778 125.155556s22.755556 39.822222 22.755555 45.511111-5.688889 5.688889-22.755555 5.688889c-28.444444 0-73.955556-5.688889-142.222222-17.066667-68.266667-11.377778-119.466667-17.066667-159.288889-17.066667-62.577778 0-96.711111 28.444444-96.711111 79.644445 0 11.377778 5.688889 22.755556 11.377777 34.133333 5.688889 11.377778 17.066667 11.377778 22.755556 11.377778h39.822222c11.377778 0 28.444444 5.688889 45.511111 11.377778 45.511111 11.377778 102.4 22.755556 182.044445 34.133333 79.644444 11.377778 136.533333 11.377778 182.044444 11.377778 45.511111 0 73.955556 0 85.333334-5.688889 11.377778-5.688889 22.755556-5.688889 28.444444-5.688889s17.066667 0 22.755556 5.688889c5.688889 0 11.377778 5.688889 17.066666 5.688889 34.133333-5.688889 45.511111-17.066667 45.511111-39.822223zM2048 844.8c45.511111 0 79.644444 0 96.711111-5.688889s34.133333-11.377778 39.822222-22.755555 17.066667-22.755556 17.066667-34.133334c0-28.444444-17.066667-73.955556-56.888889-130.844444-34.133333-45.511111-45.511111-130.844444-45.511111-261.688889 0-45.511111 5.688889-96.711111 11.377778-153.6s11.377778-96.711111 17.066666-119.466667 11.377778-45.511111 11.377778-56.888889c0-34.133333-17.066667-51.2-45.511111-51.2-11.377778 0-17.066667 0-34.133333 5.688889s-22.755556 5.688889-28.444445 17.066667-17.066667 11.377778-22.755555 17.066667c-11.377778 5.688889-34.133333 11.377778-68.266667 11.377777s-62.577778 5.688889-91.022222 5.688889c-68.266667 0-130.844444-5.688889-193.422222-22.755555-62.577778-17.066667-96.711111-28.444444-108.088889-34.133334-11.377778-5.688889-22.755556-17.066667-28.444445-34.133333-5.688889-17.066667-17.066667-22.755556-28.444444-22.755556s-22.755556 11.377778-34.133333 28.444445c-11.377778 22.755556-17.066667 39.822222-17.066667 51.2s5.688889 34.133333 11.377778 56.888889 17.066667 62.577778 22.755555 119.466666c5.688889 56.888889 11.377778 119.466667 11.377778 182.044445s-5.688889 119.466667-11.377778 176.355555-17.066667 102.4-34.133333 142.222223-28.444444 62.577778-28.444445 79.644444c0 22.755556 17.066667 34.133333 45.511112 34.133333 11.377778 0 22.755556 0 39.822222-5.688888 17.066667 0 28.444444-5.688889 39.822222-5.688889h39.822222C1706.666667 833.422222 1865.955556 844.8 2048 844.8z m-73.955556-307.2c11.377778 0 17.066667 5.688889 22.755556 11.377778s11.377778 22.755556 11.377778 39.822222l5.688889 73.955556c0 17.066667-5.688889 28.444444-11.377778 34.133333-5.688889 5.688889-22.755556 11.377778-45.511111 11.377778s-51.2 5.688889-85.333334 5.688889-79.644444-5.688889-130.844444-11.377778-85.333333-11.377778-96.711111-22.755556-22.755556-17.066667-28.444445-34.133333c-5.688889-17.066667-11.377778-34.133333-11.377777-62.577778s0-45.511111 5.688889-56.888889c5.688889-11.377778 11.377778-17.066667 22.755555-17.066666h28.444445c85.333333 17.066667 170.666667 22.755556 256 22.755555l56.888888 5.688889z m28.444445-307.2v51.2 68.266667c0 22.755556-5.688889 34.133333-11.377778 39.822222-11.377778 5.688889-34.133333 5.688889-79.644444 5.688889-45.511111 0-85.333333 0-130.844445-5.688889s-85.333333-11.377778-130.844444-22.755556c-17.066667-5.688889-28.444444-5.688889-34.133334-11.377777l-17.066666-17.066667c-5.688889-5.688889-11.377778-17.066667-11.377778-28.444445l-11.377778-102.4c0-11.377778 5.688889-22.755556 11.377778-28.444444 5.688889-5.688889 17.066667-11.377778 28.444444-5.688889 96.711111 17.066667 193.422222 28.444444 290.133334 28.444445h68.266666c11.377778 0 22.755556 0 28.444445 5.688888v22.755556z m1558.755555 170.666667c0-5.688889-17.066667-39.822222-56.888888-91.022223-39.822222-51.2-79.644444-79.644444-125.155556-79.644444-28.444444 0-79.644444 11.377778-153.6 39.822222-73.955556 28.444444-125.155556 39.822222-159.288889 39.822222-17.066667 0-28.444444-11.377778-39.822222-28.444444-39.822222-62.577778-91.022222-119.466667-147.911111-159.288889-56.888889-45.511111-119.466667-79.644444-182.044445-102.4-62.577778-22.755556-102.4-34.133333-125.155555-34.133333s-34.133333 5.688889-45.511111 17.066666c-11.377778 11.377778-28.444444 28.444444-45.511111 51.2-17.066667 28.444444-28.444444 45.511111-28.444445 51.2s5.688889 11.377778 11.377778 11.377778h68.266667c51.2 0 108.088889 11.377778 170.666666 34.133334s113.777778 51.2 153.6 85.333333c39.822222 34.133333 62.577778 56.888889 62.577778 68.266667 0 5.688889-5.688889 11.377778-22.755556 11.377777-85.333333 0-193.422222-22.755556-318.577777-68.266666-73.955556-28.444444-125.155556-45.511111-147.911111-45.511111-22.755556 0-39.822222 5.688889-45.511112 22.755555-5.688889 17.066667-11.377778 34.133333-11.377777 56.888889 0 39.822222 11.377778 56.888889 39.822222 56.888889h34.133333c17.066667 0 39.822222 5.688889 73.955556 22.755555s85.333333 28.444444 159.288889 39.822223c73.955556 11.377778 147.911111 17.066667 233.244444 22.755555 22.755556 0 45.511111 5.688889 62.577778 11.377778 17.066667 5.688889 28.444444 11.377778 34.133333 22.755556l39.822222 79.644444c17.066667 45.511111 28.444444 73.955556 34.133334 91.022222 5.688889 17.066667 5.688889 34.133333 5.688889 51.2 0 17.066667 5.688889 45.511111 17.066666 79.644445 11.377778 34.133333 22.755556 56.888889 28.444445 68.266666 11.377778 11.377778 22.755556 11.377778 34.133333 11.377778 11.377778 0 22.755556-5.688889 34.133333-11.377778 11.377778-11.377778 11.377778-22.755556 11.377778-34.133333 0-17.066667-5.688889-34.133333-22.755555-68.266667-17.066667-28.444444-28.444444-56.888889-34.133334-79.644444-5.688889-22.755556-17.066667-51.2-22.755555-85.333333-5.688889-34.133333-17.066667-68.266667-22.755556-96.711112 0-11.377778-5.688889-17.066667-5.688889-22.755555s11.377778-11.377778 28.444445-11.377778c28.444444 0 56.888889-5.688889 85.333333-17.066667s51.2-11.377778 73.955556-11.377777 39.822222 0 62.577777 5.688889c22.755556 5.688889 39.822222 5.688889 62.577778 5.688888h130.844445c5.688889 0 11.377778-5.688889 11.377777-11.377777zM2730.666667 816.355556c62.577778 0 125.155556-11.377778 182.044444-28.444445s85.333333-34.133333 85.333333-45.511111c0-17.066667-45.511111-28.444444-130.844444-39.822222-34.133333-5.688889-79.644444-11.377778-147.911111-34.133334-62.577778-17.066667-113.777778-28.444444-147.911111-28.444444s-62.577778 5.688889-79.644445 11.377778c-17.066667 5.688889-22.755556 28.444444-22.755555 56.888889 0 39.822222 17.066667 62.577778 51.2 62.577777 17.066667 0 28.444444 5.688889 45.511111 11.377778 45.511111 22.755556 102.4 34.133333 164.977778 34.133334z m62.577777-199.111112c39.822222 0 79.644444-5.688889 108.088889-11.377777 34.133333-5.688889 51.2-17.066667 51.2-28.444445s-11.377778-22.755556-28.444444-34.133333c-22.755556-11.377778-85.333333-28.444444-193.422222-56.888889s-170.666667-39.822222-193.422223-39.822222c-22.755556 0-34.133333 5.688889-45.511111 22.755555-11.377778 17.066667-17.066667 28.444444-17.066666 39.822223 0 17.066667 5.688889 28.444444 22.755555 28.444444 11.377778 0 34.133333 5.688889 51.2 22.755556s56.888889 28.444444 102.4 34.133333c45.511111 17.066667 96.711111 22.755556 142.222222 22.755555z m637.155556-551.822222c0-11.377778-17.066667-28.444444-56.888889-56.888889s-73.955556-39.822222-96.711111-39.822222c-28.444444 0-62.577778 11.377778-102.4 39.822222-39.822222 22.755556-68.266667 56.888889-91.022222 85.333334s-34.133333 62.577778-34.133334 79.644444 5.688889 34.133333 22.755556 34.133333c5.688889 0 11.377778 0 22.755556-5.688888 5.688889-5.688889 34.133333-11.377778 79.644444-22.755556s91.022222-22.755556 142.222222-45.511111c45.511111-22.755556 79.644444-34.133333 96.711111-45.511111 11.377778-5.688889 17.066667-17.066667 17.066667-22.755556z m1484.8 312.888889c0-11.377778-22.755556-39.822222-73.955556-73.955555-51.2-34.133333-91.022222-51.2-119.466666-51.2-34.133333 0-79.644444 22.755556-125.155556 62.577777-11.377778 11.377778-22.755556 17.066667-28.444444 17.066667s-11.377778-5.688889-22.755556-11.377778c-28.444444-17.066667-68.266667-28.444444-119.466666-28.444444h-85.333334c-11.377778 0-22.755556 0-28.444444-5.688889-5.688889-5.688889-11.377778-11.377778-11.377778-17.066667 0-5.688889 0-34.133333-5.688889-73.955555v-187.733334c0-22.755556-5.688889-39.822222-11.377778-51.2-11.377778-11.377778-22.755556-17.066667-45.511111-17.066666s-28.444444 17.066667-28.444444 56.888889c0 11.377778 0 22.755556 5.688889 39.822222 0 17.066667 5.688889 56.888889 5.688889 119.466666v108.088889c0 11.377778 0 17.066667-5.688889 22.755556s-11.377778 5.688889-22.755556 5.688889-28.444444 0-51.2-5.688889c-28.444444-5.688889-51.2-11.377778-79.644444-17.066667-28.444444-11.377778-56.888889-11.377778-85.333334-11.377778s-45.511111 5.688889-62.577777 22.755556-17.066667 34.133333-17.066667 45.511111 5.688889 22.755556 11.377778 34.133333c5.688889 5.688889 11.377778 11.377778 17.066666 11.377778h34.133334c17.066667 0 34.133333 5.688889 51.2 11.377778 28.444444 17.066667 79.644444 22.755556 153.6 34.133333 17.066667 0 34.133333 5.688889 39.822222 17.066667s17.066667 22.755556 17.066667 45.511111c5.688889 28.444444 17.066667 39.822222 34.133333 39.822222 5.688889 0 17.066667-5.688889 22.755555-11.377777 5.688889-5.688889 11.377778-22.755556 17.066667-39.822223s5.688889-28.444444 11.377778-39.822222c5.688889-5.688889 17.066667-11.377778 34.133333-11.377778 39.822222 0 68.266667 0 91.022222-5.688889 22.755556-5.688889 39.822222-5.688889 45.511112-5.688888s11.377778 0 11.377777 5.688888c0 11.377778-34.133333 39.822222-102.4 79.644445s-113.777778 68.266667-136.533333 68.266667c-11.377778 0-22.755556-5.688889-39.822222-11.377778-17.066667-5.688889-79.644444-39.822222-187.733334-108.088889-108.088889-62.577778-182.044444-113.777778-221.866666-142.222222s-68.266667-45.511111-79.644445-45.511111c-17.066667 0-34.133333 5.688889-51.2 17.066666s-28.444444 22.755556-28.444444 45.511111 0 45.511111 5.688889 62.577778c5.688889 22.755556 5.688889 34.133333 11.377778 34.133333s11.377778-5.688889 17.066666-22.755555c5.688889-5.688889 11.377778-11.377778 28.444445-11.377778s39.822222 11.377778 79.644444 28.444445 79.644444 39.822222 125.155556 62.577777l136.533333 73.955556c45.511111 28.444444 73.955556 39.822222 79.644444 45.511111s5.688889 5.688889 5.688889 11.377778-17.066667 17.066667-51.2 28.444444-56.888889 17.066667-68.266666 17.066667c-22.755556 0-51.2-11.377778-85.333334-34.133333-45.511111-28.444444-79.644444-39.822222-102.4-39.822223s-45.511111 17.066667-62.577777 51.2c-17.066667 34.133333-22.755556 56.888889-22.755556 62.577778 0 5.688889 0 11.377778 5.688889 11.377778s11.377778 0 22.755555-5.688889 22.755556-5.688889 34.133334-5.688889c11.377778 0 28.444444 5.688889 51.2 17.066667l142.222222 68.266666c85.333333 39.822222 142.222222 62.577778 164.977778 68.266667 22.755556 11.377778 39.822222 17.066667 51.2 28.444445 11.377778 11.377778 22.755556 17.066667 34.133333 17.066666 11.377778 0 22.755556 0 28.444445-5.688889 5.688889-5.688889 11.377778-11.377778 11.377777-22.755555s-11.377778-22.755556-34.133333-39.822222c-22.755556-17.066667-56.888889-45.511111-113.777778-79.644445-11.377778-5.688889-11.377778-11.377778-11.377778-17.066667s5.688889-11.377778 22.755556-17.066666l51.2-17.066667c17.066667-5.688889 28.444444-11.377778 39.822222-11.377778 11.377778 0 28.444444 5.688889 56.888889 22.755556 28.444444 17.066667 39.822222 28.444444 39.822222 34.133333s-11.377778 11.377778-34.133333 22.755556c-28.444444 11.377778-45.511111 22.755556-45.511111 28.444444 0 11.377778 5.688889 22.755556 17.066667 28.444445 11.377778 11.377778 28.444444 17.066667 45.511111 17.066666s28.444444 0 34.133333-5.688889c11.377778-5.688889 62.577778-5.688889 142.222222-5.688888h73.955556c17.066667 0 28.444444-5.688889 39.822222-17.066667 11.377778-11.377778 17.066667-22.755556 17.066667-28.444445s-17.066667-22.755556-45.511111-39.822222-102.4-45.511111-210.488889-91.022222c-17.066667-5.688889-22.755556-11.377778-22.755556-17.066667s5.688889-11.377778 22.755556-17.066666c51.2-22.755556 91.022222-51.2 125.155555-73.955556 45.511111-39.822222 91.022222-62.577778 142.222222-73.955555 45.511111-11.377778 79.644444-22.755556 96.711112-34.133334s39.822222-17.066667 62.577777-22.755555c22.755556-5.688889 39.822222-5.688889 56.888889-5.688889h39.822222c22.755556-5.688889 22.755556-5.688889 22.755556-17.066667z m-756.622222-187.733333c0-17.066667-11.377778-39.822222-34.133334-62.577778s-56.888889-45.511111-108.088888-73.955556c-45.511111-22.755556-85.333333-34.133333-113.777778-34.133333s-45.511111 11.377778-62.577778 34.133333c-17.066667 22.755556-22.755556 45.511111-22.755556 56.888889 0 5.688889 0 11.377778 5.688889 11.377778h17.066667c22.755556 0 39.822222 5.688889 51.2 11.377778 11.377778 5.688889 39.822222 17.066667 73.955556 28.444444 39.822222 11.377778 68.266667 17.066667 85.333333 17.066667s34.133333 5.688889 45.511111 17.066667 22.755556 11.377778 34.133333 11.377777c22.755556 0 28.444444-5.688889 28.444445-17.066666z m517.688889-62.577778c0-17.066667-11.377778-45.511111-39.822223-79.644444-28.444444-34.133333-56.888889-51.2-85.333333-51.2s-68.266667 22.755556-108.088889 68.266666c-39.822222 45.511111-62.577778 85.333333-62.577778 113.777778 0 17.066667 5.688889 22.755556 17.066667 22.755556 5.688889 0 11.377778 0 17.066667-5.688889 5.688889 0 17.066667-5.688889 28.444444-5.688889h34.133334c28.444444 0 68.266667-5.688889 108.088888-17.066667 39.822222-11.377778 68.266667-22.755556 79.644445-28.444444 5.688889 0 11.377778-5.688889 11.377778-17.066667z"  horiz-adv-x="4949" />

    
    <glyph glyph-name="lishi1" unicode="&#59163;" d="M922.9 556.8c-22.5 53.2-54.7 101-95.7 142S738.3 772 685.1 794.5C630 817.9 571.5 829.7 511.2 829.7 404.9 829.7 303.9 792.3 224 725.2v72.4c0 17.7-14.3 32-32 32s-32-14.3-32-32v-143.1c-2.9-11.6 0.8-24.4 10.7-32.5 8-6.6 18.3-8.7 27.7-6.5 1.9-0.3 3.8-0.5 5.7-0.5h156.2c17.7 0 32 14.3 32 32s-14.3 32-32 32h-91.8c68 55.7 153.2 86.7 242.7 86.7C722.3 765.7 894 593.9 894 382.9S722.3 0.1 511.2 0.1 128.4 171.8 128.4 382.9c0 17.7-14.3 32-32 32s-32-14.3-32-32c0-60.3 11.8-118.8 35.1-173.9 22.5-53.2 54.7-101 95.7-142s88.8-73.2 142-95.7c55.1-23.3 113.6-35.1 173.9-35.1 60.3 0 118.8 11.8 173.9 35.1 53.2 22.5 101 54.7 142 95.7s73.2 88.8 95.7 142c23.5 55 35.3 113.6 35.3 173.9 0 60.3-11.8 118.8-35.1 173.9zM475.6 593c-17.7 0-32-14.3-32-32v-256c0-17.7 14.3-32 32-32h246.2c17.7 0 32 14.3 32 32s-14.3 32-32 32H507.6V561c0 17.7-14.3 32-32 32z"  horiz-adv-x="1024" />

    
    <glyph glyph-name="shouye1" unicode="&#58945;" d="M1001.85025 466.635607L553.74376 878.96173c-23.853577 22.14975-59.633943 22.14975-85.191347 0L20.445923 466.635607C6.815308 454.708819 0 437.670549 0 418.928453v-500.925125C0-105.85025 20.445923-126.296173 44.299501-126.296173h301.577371c23.853577 0 44.299501 20.445923 44.299501 46.003328V228.099834c0 39.18802 32.372712 71.560732 69.856905 71.560732h100.52579c39.18802 0 71.560732-32.372712 71.560732-73.264559v-308.392679c0-25.557404 20.445923-46.003328 44.299501-46.003328h301.577371c23.853577 0 44.299501 20.445923 44.299501 46.003328V418.928453c0 18.742097-6.815308 35.780366-20.445923 47.707154"  horiz-adv-x="1024" />

    
    <glyph glyph-name="xiaojiantou" unicode="&#58920;" d="M424.407 383.685c0 45.216-0.206 90.443 0.061 135.662 0.193 32.468 19.924 44.388 47.867 28.283 78.204-45.086 156.207-90.537 234.05-136.235 26.953-15.82 27.321-38.737 0.714-54.396-78.388-46.138-157.012-91.917-235.798-137.399-26.132-15.084-46.632-2.426-46.825 28.415-0.296 45.219-0.069 90.451-0.069 135.67z"  horiz-adv-x="1024" />

    
    <glyph glyph-name="weibo" unicode="&#58988;" d="M832.9 462.3c13.4 0 24.5 9.7 26.5 22.4 0.2 1 0.3 1.8 0.3 2.8 20.1 178.4-148.2 147.6-148.2 147.6-14.9 0-26.9-11.8-26.9-26.9 0-14.7 12-26.5 26.9-26.5 120.8 26.4 94.3-92.9 94.3-92.9-0.1-14.7 12.1-26.5 27.1-26.5z m-19.6 311.3c-58.1 13.5-118.1 1.8-134.9-1.3-1.4-0.2-2.5-1.3-3.7-1.5-0.5-0.2-1-0.7-1-0.7-16.6-4.7-28.6-19.7-28.6-37.5 0-21.2 17.4-38.7 39.2-38.7 0 0 21.1 2.8 35.5 8.3 14.2 5.7 134.9 4.2 194.7-94.9 32.6-72.4 14.4-120.8 12-128.6 0 0-7.8-18.9-7.8-37.4 0-21.4 17.4-34.9 39.2-34.9 18.1 0 33.3 2.5 37.7 32.7h0.2c64.6 211.4-78.4 310.7-182.5 334.5zM403.9 46.2c-163.8-7.5-296.2 73.4-296.2 181.2 0 107.9 132.5 194.4 296.2 201.9 163.9 7.5 296.6-59.2 296.6-166.8 0-107.7-132.7-209-296.6-216.3z m348.8 350.2c-38.9 7.5-19.9 28-19.9 28s38 61.9-7.6 106.9c-56.4 55.7-193.8-7-193.8-7-52.4-16-38.5 7.3-31.1 47.1 0 46.9-16.2 126.1-156 79.4C204.6 603.6 84.8 438.6 84.8 438.6 1.5 329 12.5 244.2 12.5 244.2 33.3 57 234.9 5.6 391.7-6.6c164.9-12.7 387.7 56.1 455.1 197.5 67.6 141.8-55.1 197.8-94.1 205.5zM426.9 226.2c-10.5-7.7-23.3-6.7-28.7 2.7-5.7 9-3.5 23.4 6.9 30.9 12.2 9 24.8 6.3 30.4-2.7 5.4-9 1.5-22.9-8.6-30.9z m-97.2-81.6c-30.8-3.5-55.6 14-55.6 39.4 0 25.2 22 51.7 52.7 54.9 35.3 3.3 58.3-16.7 58.3-42.2 0.2-25.2-24.8-48.6-55.4-52.1z m41.5 213.8c-164.8-19-145.7-171.2-145.7-171.2s-1.7-48.2 44.1-72.7c96.3-51.6 195.7-20.3 245.7 43.5 50.3 63.7 20.9 219.2-144.1 200.4z"  horiz-adv-x="1024" />

    
    <glyph glyph-name="jia1" unicode="&#58889;" d="M850.511-127.711h-677.308c-95.656 0-173.202 77.545-173.202 173.202v677.308c0 95.657 77.545 173.202 173.202 173.202h677.308c95.657 0 173.202-77.545 173.202-173.202v-677.308c0-95.657-77.545-173.202-173.202-173.202zM971.749 97.454v573.382c0 95.657-77.545 173.202-173.202 173.202h-573.382c-95.657 0-173.202-77.545-173.202-173.202v-573.382c0-95.657 77.545-173.202 173.202-173.202h573.382c95.657 0 173.202 77.545 173.202 173.202zM855.46 346.536h-685.598c-0.949 0-1.725 1.030-1.725 2.29v80.84c0 1.26 0.776 2.29 1.725 2.29h685.598c0.949 0 1.725-1.030 1.725-2.29v-80.84c-0-1.259-0.777-2.29-1.725-2.29zM469.952 46.447v685.597c0 0.949 1.030 1.725 2.29 1.725h80.84c1.26 0 2.29-0.776 2.29-1.725v-685.598c0-0.949-1.030-1.725-2.29-1.725h-80.84c-1.259 0-2.29 0.777-2.29 1.726z"  horiz-adv-x="1024" />

    
    <glyph glyph-name="bofang1" unicode="&#58952;" d="M512.128-127.914667a511.786667 511.786667 0 1 0 511.786667 511.786667 511.786667 511.786667 0 0 0-511.786667-511.786667z m0 938.24a426.496 426.496 0 1 1 426.496-426.453333 426.496 426.496 0 0 1-426.496 426.453333z m208.042667-454.208l-303.466667-173.248a27.392 27.392 0 0 0-41.066667 23.466667V552.896a27.370667 27.370667 0 0 0 41.066667 23.466667l303.466667-173.269334a26.922667 26.922667 0 0 0 0-46.933333z"  horiz-adv-x="1024" />

    
    <glyph glyph-name="damuzhizhaoxia1" unicode="&#58890;" d="M592.8 882.4c20-10.4 37.6-28 52.8-51.2 24.8-38.4 40-93.6 43.2-156 2.4-50.4-3.2-102.4-16-148h190.4c44.8 0 83.2-11.2 112-32 29.6-21.6 46.4-52.8 47.2-87.2v-0.8c0-26.4-10.4-58.4-25.6-79.2 16.8-19.2 25.6-44.8 25.6-76 0-36.8-25.6-71.2-51.2-89.6 6.4-14.4 8.8-31.2 8.8-42.4 0-41.6-24.8-74.4-68-92 4-9.6 5.6-20 5.6-32.8 0-39.2-16-71.2-46.4-92-29.6-20.8-72-31.2-125.6-31.2h-304c-33.6 0-71.2 7.2-99.2 18.4-11.2 4.8-21.6 9.6-28.8 13.6-1.6 0.8-4 1.6-5.6 2.4-1.6-0.8-2.4-2.4-4-3.2-2.4-1.6-4.8-4-7.2-5.6-17.6-12.8-36.8-24.8-60-25.6H154.4c-35.2 0-64 11.2-84 32.8-18.4 20-29.6 48.8-32 84.8L0.8 390.4V392c0 37.6 11.2 71.2 32 96 21.6 25.6 52 39.2 85.6 39.2H264c20 0 52.8 6.4 95.2 37.6 29.6 22.4 48 44.8 52 52 13.6 32.8 26.4 68.8 26.4 154.4 0 10.4 0 42.4 13.6 70.4C462.4 866.4 488 895.2 540.8 895.2c18.4 0 35.2-4.8 52-12.8zM80-4.8s0-0.8 0 0c2.4-27.2 8.8-47.2 21.6-60 12-12.8 29.6-19.2 53.6-19.2h80.8c12.8 0.8 25.6 8.8 36.8 17.6 2.4 1.6 4 3.2 6.4 4.8 8 6.4 17.6 13.6 29.6 13.6 6.4 0 11.2-2.4 24-8.8 7.2-4 16.8-8 27.2-12.8 18.4-8 51.2-15.2 82.4-15.2h304.8c45.6 0 80 8 102.4 23.2 19.2 13.6 28.8 32 28.8 57.6 0 13.6-2.4 20.8-11.2 32.8-1.6 2.4-2.4 4.8-3.2 7.2-2.4 11.2 4 22.4 15.2 24.8 18.4 4.8 61.6 19.2 61.6 60 0 12.8-5.6 28.8-9.6 32.8-4 3.2-7.2 7.2-8 12-3.2 11.2 4 22.4 15.2 25.6 11.2 3.2 44.8 31.2 44.8 61.6 0 27.2-8.8 46.4-24.8 57.6-2.4 1.6-4.8 4-6.4 7.2-5.6 9.6-2.4 22.4 8 28.8 7.2 4.8 24 34.4 24 62.4-0.8 21.6-11.2 40-30.4 53.6-21.6 15.2-52.8 24-88 24H644c-2.4 0-4.8 0.8-7.2 1.6-11.2 4-16 16-12 26.4 17.6 47.2 24.8 103.2 22.4 159.2-3.2 55.2-16 103.2-36.8 136-23.2 36.8-50.4 44.8-68.8 44.8-26.4 0-61.6-8.8-61.6-81.6 0-94.4-14.4-136.8-29.6-172 0-0.8-0.8-0.8-0.8-1.6-8-15.2-32.8-43.2-64.8-66.4-28-20.8-72-46.4-120-46.4H119.2c-21.6 0-40-8.8-53.6-24.8-14.4-16.8-22.4-40.8-22.4-68l36.8-398.4zM323.2 499.2v-567.2c0-12-9.6-21.6-21.6-21.6S280-80 280-68V499.2c0 12 9.6 21.6 21.6 21.6 12 0 21.6-9.6 21.6-21.6z"  horiz-adv-x="1024" />

    
    <glyph glyph-name="denglu" unicode="&#58970;" d="M726.552381 269.409524c21.942857 0 39.009524 17.066667 39.009524 39.009524 0 12.190476-4.87619 24.380952-14.628572 31.695238-29.257143 24.380952-63.390476 41.447619-99.961904 56.07619 46.32381 39.009524 75.580952 97.52381 75.580952 163.352381C726.552381 679.009524 631.466667 774.095238 512 774.095238s-214.552381-97.52381-214.552381-214.552381c0-65.828571 29.257143-124.342857 75.580952-163.352381-146.285714-56.07619-251.12381-197.485714-251.123809-365.714286 0-21.942857 17.066667-39.009524 39.009524-39.009523 21.942857 0 39.009524 17.066667 39.009524 39.009523 0 173.104762 141.409524 314.514286 312.07619 314.514286 70.704762 0 136.533333-24.380952 187.733333-63.390476 7.314286-7.314286 17.066667-12.190476 26.819048-12.190476zM512 423.009524c-75.580952 0-136.533333 60.952381-136.533333 136.533333 0 75.580952 60.952381 136.533333 136.533333 136.533333 75.580952 0 136.533333-60.952381 136.533333-136.533333s-60.952381-136.533333-136.533333-136.533333zM870.4 145.066667h-58.514286v58.514285c0 17.066667-12.190476 29.257143-29.257143 29.257143s-29.257143-12.190476-29.257142-29.257143v-58.514285h-58.514286c-17.066667 0-29.257143-12.190476-29.257143-29.257143s12.190476-29.257143 29.257143-29.257143h58.514286v-58.514286c0-17.066667 12.190476-29.257143 29.257142-29.257143s29.257143 12.190476 29.257143 29.257143v58.514286h58.514286c17.066667 0 29.257143 12.190476 29.257143 29.257143 0 14.628571-12.190476 29.257143-29.257143 29.257143z"  horiz-adv-x="1024" />

    
    <glyph glyph-name="xiugai-copy" unicode="&#58891;" d="M200.152 142.887l38.67 155.415 116.204-116.603-154.875-38.813zM384.3 210.843l-116.204 116.589 348.582 349.783 116.177-116.589-348.556-349.782zM761.911 589.77l-116.191 116.589 87.136 87.446c16.054 16.101 42.055 16.101 58.095 0l58.095-58.302c16.040-16.087 16.040-42.188 0-58.288l-87.136-87.446zM929.29-25.311h-797.894c-22.795 0.001-41.271 18.577-41.271 41.496 0 22.92 18.475 41.497 41.271 41.497h797.894c22.794 0 41.271-18.577 41.271-41.496s-18.476-41.496-41.271-41.496z"  horiz-adv-x="1069" />

    
    <glyph glyph-name="bofang-" unicode="&#58933;" d="M516.461492 896C233.7111 896 4.462742 666.749142 4.462742 384c0-282.770392 229.248358-512 511.99875-512 282.751642 0 512 229.229608 512 512C1028.462742 666.749142 799.213134 896 516.461492 896z m213.293125-541.480432L418.942564 177.583226c-28.500417-16.218988-51.813259-2.948793-51.813259 29.500432V560.916342c0 32.447975 23.312841 45.71817 51.813259 29.500432l310.812053-176.926342c28.497917-16.218988 28.497917-42.761876 0-58.970864z"  horiz-adv-x="1059" />

    
    <glyph glyph-name="qq" unicode="&#58929;" d="M505.100496-37.754956c0-49.769286-72.758538-90.122761-162.514449-90.122761s-162.392166 40.353475-162.392167 90.122761S252.952419 52.245522 342.70833 52.245522s162.514449-40.353475 162.514449-90.122761zM680.576971 52.245522c-89.755911 0-162.514449-40.353475-162.51445-90.122761s72.758538-90.122761 162.51445-90.122761 162.514449 40.353475 162.514449 90.122761S770.210599 52.245522 680.576971 52.245522zM870.84972 394.638643s-12.228326 12.228326-25.434918 24.456652V562.533556a333.466444 333.466444 0 1 1-666.932887 0V419.095295C165.15304 406.866969 152.924714 394.638643 152.924714 394.638643c-21.644137-33.01648-73.369955-117.269644-73.369955-196.876044s21.76642-93.179842 29.959398-93.791259S145.098585 110.941486 178.359632 162.300454c45.122522-149.919274 177.18844-258.506807 333.221877-258.506807S800.169997 12.38118 845.047953 162.300454c33.505613-51.603535 61.753045-59.30738 69.334607-58.573681s29.959398 14.307141 29.959398 93.791259-51.725818 163.859565-73.369955 196.509195zM266.648144 337.165512a429.336518 429.336518 0 0 1-3.668498-58.451397c0-182.079771 113.478863-330.164796 253.37091-330.164796s253.37091 147.595892 253.37091 330.164796a429.336518 429.336518 0 0 1-3.913064 58.451397z m157.623119 405.858133c-36.684977 0-67.255792-40.842608-67.255792-91.223311s30.081681-91.22331 67.255792-91.22331 67.255792 40.842608 67.255792 91.22331-30.081681 91.22331-67.255792 91.223311zM435.399039 614.748507c-13.573442 0-24.456652 16.752806-24.456651 37.418677s11.005493 37.418677 24.456651 37.418677 24.456652-16.752806 24.456652-37.418677-11.005493-37.418677-24.456652-37.418677z m166.305231 128.275138c-36.684977 0-67.255792-40.842608-67.255792-91.223311s30.081681-91.22331 67.255792-91.22331 67.255792 40.842608 67.255791 91.22331-30.081681 91.22331-67.255791 91.223311z m11.372343-94.647242a1.834249 1.834249 0 0 0-1.834249-1.834249 1.711966 1.711966 0 0 0-1.711966 1.345116 24.456652 24.456652 0 0 1-20.66587 17.853356A24.456652 24.456652 0 0 1 568.68779 647.642704a1.711966 1.711966 0 0 0-1.589682-1.10055 1.834249 1.834249 0 0 0-1.834249 1.834249V651.433485c0 20.665871 11.005493 37.418677 24.456651 37.418676s24.456652-16.752806 24.456652-37.418676v-3.179365zM247.938805 355.508001c-6.114163-30.570814-19.076188-167.894913-12.962025-198.465727s31.793647-25.434918 68.723191-25.801768 77.527585-10.14951 78.139001 34.728446 0.7337 133.288751 10.88321 165.93838-144.783377 23.600669-144.783377 23.600669zM239.86811 289.964175l143.560545-46.467638a416.863626 416.863626 0 0 0 9.415811 88.166229c10.14951 32.64963-144.783377 23.845235-144.783378 23.845235-2.201099-11.127776-5.380463-36.684977-8.192978-65.543826zM512.559775 433.769286c111.889181 0 202.867925 40.720325 202.867924 65.910676 0 19.076188-90.734177 38.763793-202.623358 38.763792s-202.623358-17.731072-202.623358-38.763792c0-23.845235 90.734177-65.910676 202.623358-65.910676zM514.63859 409.190351s128.519704-1.345116 231.115357 42.187724 101.617387 48.913303 112.867447 48.913303 24.456652-16.14139 30.081682-45.244805 12.228326-52.092668-12.228326-66.399809-180.979221-106.508717-357.923096-106.508718h-8.804394c-176.943874 0-333.955577 92.32386-357.923095 106.508718s-17.364223 36.684977-12.228326 66.399809 18.831622 45.244805 30.081681 45.244805 10.14951-4.89133 112.867447-48.913303 231.115357-42.187724 231.115357-42.187724z"  horiz-adv-x="1024" />

    
    <glyph glyph-name="shangxiasanjiaoxing" unicode="&#58883;" d="M217.315 472.838c-23.498-23.505-5.002-65.121 26.974-65.121h534.066c33.139 0 50.463 41.6 26.974 65.121l-267.039 267.42c-15.397 15.429-38.138 15.413-53.557 0l-267.42-267.42zM805.561 291.882c23.498 23.505 5.002 65.121-26.974 65.121h-534.066c-33.139 0-50.463-41.6-26.974-65.121l267.036-267.42c15.397-15.429 38.138-15.413 53.557 0l267.423 267.42z"  horiz-adv-x="1024" />

    
    <glyph glyph-name="bofang2" unicode="&#59012;" d="M59.589678 382.666632c0 119.250988-0.735757 238.510162 0.544399 357.746824 0.299829 27.932166 3.860934 56.899918 12.137435 83.454713C90.272491 881.625618 138.128429 907.18883 196.454836 891.259022c25.065885-6.845918 49.870828-17.47807 72.323188-30.614251a105010.832735 105010.832735 0 0 0 598.046749-352.546382c23.254633-13.811564 45.961798-30.355355 64.590064-49.785893 44.464701-46.382377 44.152593-102.936417-0.215918-149.033291-17.375739-18.053168-38.044478-33.961486-59.629075-46.77942-201.484897-119.65724-403.336138-238.700497-605.585445-357.061208-21.601994-12.641925-45.683459-22.538319-69.875441-28.965706-58.501392-15.542998-105.98587 9.982352-123.93773 67.9066-8.234545 26.570145-11.740392 55.535851-12.042267 83.47211-1.274016 118.259404-0.539282 236.541321-0.539283 354.815051z"  horiz-adv-x="1024" />

    
    <glyph glyph-name="dengluzhanghao" unicode="&#58931;" d="M649.536 266.24c-20.48 8.896-23.424 38.336-5.888 50.112 76.096 52.928 128.768 152.96 128.768 267.712C772.416 754.752 655.36 896 509.056 896 362.88 896 245.76 757.76 245.76 584.064c0-111.808 52.672-208.896 125.824-264.768 17.536-11.776 14.592-41.216-5.888-50.048L67.264 128C26.304 107.392 0 66.176 0 22.08v-91.2c0-32.384 26.304-58.88 58.496-58.88h907.008a58.88 58.88 0 0 1 58.496 58.88v88.256c0 47.04-26.304 88.32-70.208 108.864l-304.256 138.24"  horiz-adv-x="1024" />

    
    <glyph glyph-name="guanbi1" unicode="&#58888;" d="M806.4768 66.0736H219.392c-115.1232 0-208.7424 93.824-208.7424 209.152v211.6608c0 115.328 93.6448 209.152 208.7424 209.152h587.1104c115.0976 0 208.7424-93.8496 208.7424-209.152v-211.6608c0-115.328-93.6448-209.152-208.768-209.152zM219.392 650.112c-89.7792 0-162.816-73.216-162.816-163.2256v-211.6608c0-90.0352 73.0368-163.2256 162.816-163.2256h587.1104c89.7792 0 162.816 73.1904 162.816 163.2256v211.6608c0 90.0096-73.0624 163.2256-162.816 163.2256H219.392zM670.1056 496.768l-33.7664 34.2016-112.8448-113.2032-112.7424 112.768-33.7408-34.176 112.5376-112.5888-112.5632-112.9984 33.7664-34.2272 112.8192 113.2032 112.768-112.7424 33.7664 34.176-112.5632 112.5888 112.5632 112.9984m0 0z"  horiz-adv-x="1024" />

    
    <glyph glyph-name="xunhuan" unicode="&#58921;" d="M73.617261 262.768613a24.319042 24.319042 0 0 0-24.38304 24.319043V591.523669c0 90.236447 73.341112 158.329766 170.553285 158.329766H901.744654a24.319042 24.319042 0 0 0 0-48.702083H219.787506c-70.589221 0-121.787205-46.078186-121.787205-109.627683v-304.372016a24.319042 24.319042 0 0 0-24.38304-24.38304zM804.212494 19.194204H98.000301a24.319042 24.319042 0 1 0 0 48.76608h706.212193c63.805488 0 121.787205 63.74149 121.787205 133.946726V481.895985a24.319042 24.319042 0 1 0 48.702082 0v-280.052973c0-97.340167-79.612865-182.648808-170.489287-182.648808zM804.212494 555.045105a24.319042 24.319042 0 0 0-17.215322 41.598362l120.251265 120.251265a11.967529 11.967529 0 0 1 3.583859 8.63966 12.159521 12.159521 0 0 1-3.583859 8.703657L786.997172 854.489314c-9.471627 9.471627-9.471627 24.959017 0 34.430645s24.959017 9.471627 34.430644 0l120.251265-120.251265c11.583544-11.519546 17.791299-26.814944 17.7913-43.134302a60.349624 60.349624 0 0 0-17.7913-43.070304l-120.251265-120.251265a23.551073 23.551073 0 0 0-17.215322-7.167718zM219.787506-126.97604a24.12705 24.12705 0 0 0-17.27932 7.231715l-120.251265 120.251265a60.925601 60.925601 0 0 0 0 86.204606l120.251265 120.251265a24.447037 24.447037 0 0 0 34.494642-34.558639l-120.187268-120.187268a12.159521 12.159521 0 0 1 0-17.343317l120.187268-120.251265a24.191047 24.191047 0 0 0 0-34.366647 24.319042 24.319042 0 0 0-17.215322-7.231715z"  horiz-adv-x="1024" />

    
    <glyph glyph-name="small-bottom-arrow" unicode="&#58882;" d="M704.5409375 452.6335416666666c23.83500000000001 26.86593749999999 13.967812500000012 48.84843749999999-21.961874999999978 48.846562500000005l-353.8771875 8.526512829121202e-14c-35.9090625 1.0658141036401503e-14-45.795937499999994-21.98249999999998-21.961875000000006-48.84843749999999l155.55562499999994-175.26187500000003c23.835937499999993-26.86500000000001 62.85374999999999-26.86500000000002 86.70093750000001-2.1316282072803006e-14l155.54625000000001 175.26187499999992z"  horiz-adv-x="1024" />

    
    <glyph glyph-name="wei_xing" unicode="&#58905;" d="M691.8 547.5c11.7 0 23.2-0.9 34.8-2.1C695.4 690.2 540.5 797.8 363.5 797.8 165.7 797.8 3.7 663.1 3.7 492.1c0-98.7 53.9-179.8 144-242.8l-36-108.1 125.9 62.9c45-8.8 81-18 126-18 11.3 0 22.5 0.5 33.5 1.3-7 24.1-11.1 49.2-11.1 75.4 0 157.2 134.9 284.7 305.8 284.7z m-193.4 97.4c27.2 0 45-17.8 45-44.9 0-26.9-17.9-44.9-45-44.9-26.8 0-54 18-54 44.9 0.1 27.1 27 44.9 54 44.9z m-251.8-89.8c-27 0-54.2 18-54.2 44.9 0 27 27.2 44.9 54.2 44.9 27 0 44.9-17.8 44.9-44.9 0-26.9-17.9-44.9-44.9-44.9z m773.7-287.9c0 143.8-144 260.9-305.7 260.9-171.2 0-306-117.2-306-260.9 0-144.2 134.8-260.9 306-260.9 35.9 0 72 8.9 108 18l98.7-54.1-27 89.9c72.1 54.3 126 126.1 126 207.1z m-404.9 45c-17.9 0-36 17.8-36 35.9 0 17.9 18.1 35.9 36 35.9 27.3 0 45-18 45-35.9 0-18.1-17.7-35.9-45-35.9z m197.9 0c-17.7 0-35.8 17.8-35.8 35.9 0 17.9 18 35.9 35.8 35.9 27 0 45-18 45-35.9 0.1-18.1-17.9-35.9-45-35.9z"  horiz-adv-x="1024" />

    
    <glyph glyph-name="hollowow" unicode="&#59090;" d="M752.128 714.752h107.52v-18.944L790.528 640h71.68v-20.48H745.984v19.968l68.096 55.296h-61.952v19.968z m174.08 64l94.208 76.288V881.152H872.96v-28.16h84.48l-93.184-75.264v-27.136H1024v28.16h-97.792z m-0.512-891.904H0v75.776c0 65.024 37.888 124.928 96.256 153.6L338.944 232.96000000000004v26.112c-83.968 50.688-137.216 149.504-137.216 256 0 160.256 116.736 291.328 260.608 291.328s260.608-130.56 260.608-291.328c0-107.008-53.248-205.824-137.216-256v-26.624l242.688-116.736c58.368-28.16 96.256-88.576 96.256-153.088l1.024-75.776z m-875.52 50.176H875.52v26.624c0 45.568-27.136 88.064-68.608 108.032L536.064 202.24v87.552l13.312 7.168C624.64 335.87199999999996 673.28 422.4 673.28 516.608c0 133.12-94.208 241.152-210.944 241.152-116.224 0-210.944-108.544-210.944-241.152 0-94.208 48.64-180.224 123.904-219.648l13.312-7.168v-87.552L117.76 71.67999999999995c-41.472-19.968-68.608-62.464-68.608-108.544l1.024-26.112z"  horiz-adv-x="1024" />

    
    <glyph glyph-name="icon02" unicode="&#58881;" d="M509.86675497844936-134.3541433685332c-285.50878597878517 0-516.9598013743407 231.49765760948148-516.9598013743407 517.0432654348641S224.3579689996643 899.7152038001777 509.86675497844936 899.7152038001777c285.5112404233481 0 516.9622558189036-231.4804739084642 516.9622558189036-517.0260817338469S795.3779954017974-134.3541433685332 509.86675497844936-134.3541433685332zM509.86675497844936 835.0893975425581c-249.82294849611847 0-452.3389053003852-202.54541402263706-452.3389053003852-452.40027547622714S260.04380518779266-69.71360914899753 509.86675497844936-69.71360914899753s452.3389053003852 202.54786846719998 452.3389053003852 452.4027312153284S759.689703474568 835.0893975425581 509.86675497844936 835.0893975425581zM703.7269861666764 350.36885495656304L542.1796574599902 350.36885495656304l0-161.57187833046913c0-17.836781335387652-14.466302073362964-32.30799359241482-32.310448036977775-32.30799359241482-17.844145963614814 0-32.30799359241482 14.47121225702716-32.30799359241482 32.30799359241482l0 161.57187833046913-161.55223889035062 0c-17.844145963614814 0-32.310448036977775 14.468756517925923-32.310448036977775 32.3202671097679 0 17.839235779950616 14.468756517925923 32.30799359241482 32.310448036977775 32.30799359241482l161.55223889035062 0 0 161.57924295869628c0 17.836781335387652 14.466302073362964 32.30062896418766 32.30799359241482 32.30062896418766 17.84660040817778 0 32.310448036977775-14.461391889698765 32.310448036977775-32.30062896418766l0-161.57924295869628 161.54733000122468 0c17.84660040817778 0 32.310448036977775-14.468756517925923 32.310448036977775-32.30799359241482C736.0374342036542 364.8376114744889 721.5735865748544 350.36885495656304 703.7269861666764 350.36885495656304z"  horiz-adv-x="1024" />

    
    <glyph glyph-name="shouji" unicode="&#58938;" d="M691.2-76.8H332.8c-56.576 0-102.4 45.824-102.4 102.4V742.4c0 56.576 45.824 102.4 102.4 102.4h358.4c56.525 0 102.4-45.824 102.4-102.4v-716.8c0-56.576-45.875-102.4-102.4-102.4zM512-25.6c14.131 0 25.6 11.469 25.6 25.6 0 14.131-11.469 25.6-25.6 25.6-14.131 0-25.6-11.469-25.6-25.6 0-14.131 11.469-25.6 25.6-25.6z m128 797.85c0 11.776-9.574 21.35-21.35 21.35h-213.3c-11.827 0-21.35-9.574-21.35-21.35v-8.5c0-11.776 9.523-21.35 21.35-21.35h213.3c11.776 0 21.35 9.574 21.35 21.35v8.5zM742.4 640c0 28.262-22.938 51.2-51.2 51.2H332.8c-28.262 0-51.2-22.938-51.2-51.2v-512c0-28.262 22.938-51.2 51.2-51.2h358.4c28.262 0 51.2 22.938 51.2 51.2V640z"  horiz-adv-x="1024" />

    
    <glyph glyph-name="caidanmianban_yejianmoshi-" unicode="&#59044;" d="M232.612346 616.612346c-31.225679 31.225679-84.321975 20.22716-84.321976 40.454321s53.096296 9.228642 84.321976 40.454321S252.839506 782.222222 273.066667 782.222222s9.228642-53.096296 40.454321-84.321975 84.321975-20.22716 84.321975-40.454321-53.096296-9.228642-84.321975-40.454321-20.22716-84.321975-40.454321-84.321975-9.228642 52.717037-40.454321 83.942716zM43.741235 356.314074A25.283951 25.283951 0 0 0 84.321975 377.679012 350.309136 350.309136 0 0 1 616.043457 799.036049a25.283951 25.283951 0 0 0 30.340741 34.512593A469.017284 469.017284 0 1 0 43.741235 356.314074z m638.293333 410.232099a422.494815 422.494815 0 0 0 14.538272-109.479506A400.877037 400.877037 0 0 0 101.135802 307.01037a418.449383 418.449383 0 1 1 581.530865 459.535803z"  horiz-adv-x="1024" />

    
    <glyph glyph-name="gengduo2" unicode="&#58976;" d="M325.818182 430.545455h-186.181818C65.163636 430.545455 0 495.709091 0 570.181818v186.181818C0 830.836364 65.163636 896 139.636364 896h186.181818C400.290909 896 465.454545 830.836364 465.454545 756.363636v-186.181818C465.454545 495.709091 400.290909 430.545455 325.818182 430.545455z m-186.181818 372.363636c-27.927273 0-46.545455-18.618182-46.545455-46.545455v-186.181818c0-27.927273 18.618182-46.545455 46.545455-46.545454h186.181818c27.927273 0 46.545455 18.618182 46.545454 46.545454v186.181818c0 27.927273-18.618182 46.545455-46.545454 46.545455h-186.181818zM325.818182-128h-186.181818C65.163636-128 0-62.836364 0 11.636364v186.181818C0 272.290909 65.163636 337.454545 139.636364 337.454545h186.181818C400.290909 337.454545 465.454545 272.290909 465.454545 197.818182v-186.181818c0-74.472727-65.163636-139.636364-139.636363-139.636364z m-186.181818 372.363636c-27.927273 0-46.545455-18.618182-46.545455-46.545454v-186.181818c0-27.927273 18.618182-46.545455 46.545455-46.545455h186.181818c27.927273 0 46.545455 18.618182 46.545454 46.545455v186.181818c0 27.927273-18.618182 46.545455-46.545454 46.545454h-186.181818zM1089.163636 756.363636H586.472727c-18.618182 0-46.545455 18.618182-46.545454 46.545455s18.618182 46.545455 46.545454 46.545454h493.381818c27.927273 0 46.545455-18.618182 46.545455-46.545454s-18.618182-46.545455-37.236364-46.545455zM1089.163636 430.545455H586.472727c-18.618182 0-46.545455 18.618182-46.545454 46.545454s27.927273 46.545455 46.545454 46.545455h493.381818c27.927273 0 46.545455-18.618182 46.545455-46.545455s-18.618182-46.545455-37.236364-46.545454zM1089.163636 197.818182H586.472727c-18.618182 0-46.545455 18.618182-46.545454 46.545454s18.618182 46.545455 46.545454 46.545455h493.381818c27.927273 0 46.545455-18.618182 46.545455-46.545455s-18.618182-46.545455-37.236364-46.545454zM1089.163636-128H586.472727c-27.927273 0-46.545455 18.618182-46.545454 46.545455s27.927273 46.545455 46.545454 46.545454h493.381818c27.927273 0 46.545455-18.618182 46.545455-46.545454s-18.618182-46.545455-37.236364-46.545455z"  horiz-adv-x="1210" />

    


  </font>
</defs>
</svg>
